<svg xmlns="http://www.w3.org/2000/svg" version="1.0" viewBox="0 0 616 342"><path fill-opacity=".5" d="M356.5 62.5c0 20.9.1 29.6.2 19.3.2-10.3.2-27.4 0-38-.1-10.6-.2-2.2-.2 18.7m0 219c0 20.9.1 29.6.2 19.3.2-10.3.2-27.4 0-38-.1-10.6-.2-2.2-.2 18.7"/><path fill-opacity=".7" d="M374.8 7.7c.7.3 1.6.2 1.9-.1.4-.3-.2-.6-1.3-.5-1.1 0-1.4.3-.6.6m-267 236c45.9.2 120.6.2 166 0 45.5-.1 8-.2-83.3-.2s-128.5.1-82.7.2"/><path fill-opacity=".2" d="M601 157.4c0 .2.8 1 1.8 1.7 1.5 1.3 1.6 1.2.3-.4s-2.1-2.1-2.1-1.3m-589 80c0 .2.8 1 1.8 1.7 1.5 1.3 1.6 1.2.3-.4s-2.1-2.1-2.1-1.3"/><path fill-opacity=".8" d="M107.8 100.7c45.9.2 120.6.2 166 0 45.5-.1 8-.2-83.3-.2s-128.5.1-82.7.2"/><path d="M367.5 9.7c-4.6 2.4-6.6 4.5-8.6 8.8-1.7 3.7-1.9 7.3-1.9 43.2V101H189.4c-121.9 0-168.1.3-169.7 1.1-3.2 1.7-7.7 6-9.3 9.1-2.1 4-2.1 117.6 0 121.6 1.9 3.6 6.5 7.8 9.9 9.1 2 .8 54.2 1.1 169.8 1.1H357v39c0 41.2.2 43.2 4.8 48.3 4.3 4.8 13.5 7.1 19.4 4.8 3-1.1 216.3-146.5 220.1-150 4.2-3.8 5.7-7.3 5.7-13.1s-1.5-9.3-5.7-13.1C598.2 156 387.1 12 382.4 9.5c-3.7-1.9-11.1-1.9-14.9.2"/><path fill-opacity=".9" d="m13.4 106.2-1.9 2.3 2.3-1.9c2.1-1.8 2.7-2.6 1.9-2.6-.2 0-1.2 1-2.3 2.2M8.5 172c0 30 .1 42.2.2 27.2.2-14.9.2-39.5 0-54.5-.1-14.9-.2-2.7-.2 27.3m593-13c1 1.1 2 2 2.3 2s-.3-.9-1.3-2-2-2-2.3-2 .3.9 1.3 2M12 236.4c0 .2.8 1 1.8 1.7 1.5 1.3 1.6 1.2.3-.4s-2.1-2.1-2.1-1.3"/></svg>