<svg xmlns="http://www.w3.org/2000/svg" version="1.0" viewBox="0 0 616 342"><path fill-opacity=".2" d="M12.9 158.7c-1.3 1.6-1.2 1.7.4.4.9-.7 1.7-1.5 1.7-1.7 0-.8-.8-.3-2.1 1.3m589 80c-1.3 1.6-1.2 1.7.4.4.9-.7 1.7-1.5 1.7-1.7 0-.8-.8-.3-2.1 1.3"/><path fill-opacity=".7" d="M239.8 7.7c.7.3 1.6.2 1.9-.1.4-.3-.2-.6-1.3-.5-1.1 0-1.4.3-.6.6m103 236c45.9.2 120.6.2 166 0 45.5-.1 8-.2-83.3-.2s-128.5.1-82.7.2"/><path fill-opacity=".5" d="M259.5 62.5c0 20.9.1 29.6.2 19.3.2-10.3.2-27.4 0-38-.1-10.6-.2-2.2-.2 18.7m0 219c0 20.9.1 29.6.2 19.3.2-10.3.2-27.4 0-38-.1-10.6-.2-2.2-.2 18.7"/><path fill-opacity=".9" d="M601.5 106c1 1.1 2 2 2.3 2s-.3-.9-1.3-2-2-2-2.3-2 .3.9 1.3 2m6 66c0 30 .1 42.2.2 27.2.2-14.9.2-39.5 0-54.5-.1-14.9-.2-2.7-.2 27.3M13.4 159.2l-1.9 2.3 2.3-1.9c2.1-1.8 2.7-2.6 1.9-2.6-.2 0-1.2 1-2.3 2.2m588.5 78.5c-1.3 1.6-1.2 1.7.4.4.9-.7 1.7-1.5 1.7-1.7 0-.8-.8-.3-2.1 1.3"/><path d="M233.6 9.5C228.9 12 17.8 156 14.7 158.9 10.5 162.7 9 166.2 9 172s1.5 9.3 5.7 13.1c3.8 3.5 217.1 148.9 220.1 150 5.9 2.3 15.1 0 19.4-4.8 4.6-5.1 4.8-7.1 4.8-48.3v-39h166.9c115.6 0 167.8-.3 169.8-1.1 3.4-1.3 8-5.5 9.9-9.1 1.2-2.2 1.4-12.7 1.4-60.8s-.2-58.6-1.4-60.8c-1.6-3.1-6.1-7.4-9.3-9.1-1.6-.8-47.8-1.1-169.7-1.1H259V62c0-41.2-.2-43.2-4.8-48.3-4.7-5.2-14.7-7.2-20.6-4.2"/><path fill-opacity=".8" d="M342.8 100.7c45.9.2 120.6.2 166 0 45.5-.1 8-.2-83.3-.2s-128.5.1-82.7.2"/></svg>