<svg xmlns="http://www.w3.org/2000/svg" version="1.0" viewBox="0 0 476 565"><path fill-opacity=".3" d="M331 48.4c0 .2.8 1 1.8 1.7 1.5 1.3 1.6 1.2.3-.4s-2.1-2.1-2.1-1.3M145.9 281.7c-1.3 1.6-1.2 1.7.4.4.9-.7 1.7-1.5 1.7-1.7 0-.8-.8-.3-2.1 1.3m220 0c-1.3 1.6-1.2 1.7.4.4s2.1-2.1 1.3-2.1c-.2 0-1 .8-1.7 1.7"/><path fill-opacity=".4" d="M328 45.5c1.3 1.4 2.6 2.5 2.8 2.5.3 0-.5-1.1-1.8-2.5s-2.6-2.5-2.8-2.5c-.3 0 .5 1.1 1.8 2.5"/><path fill-opacity=".8" d="M172.9 72.7c-1.3 1.6-1.2 1.7.4.4s2.1-2.1 1.3-2.1c-.2 0-1 .8-1.7 1.7m-65.8 59.9c0 1.1.3 1.4.6.6.3-.7.2-1.6-.1-1.9-.3-.4-.6.2-.5 1.3m259 0c0 1.1.3 1.4.6.6.3-.7.2-1.6-.1-1.9-.3-.4-.6.2-.5 1.3m-364 316c0 1.1.3 1.4.6.6.3-.7.2-1.6-.1-1.9-.3-.4-.6.2-.5 1.3m469 0c0 1.1.3 1.4.6.6.3-.7.2-1.6-.1-1.9-.3-.4-.6.2-.5 1.3M37 527.5c1.3 1.4 2.6 2.5 2.8 2.5.3 0-.5-1.1-1.8-2.5s-2.6-2.5-2.8-2.5c-.3 0 .5 1.1 1.8 2.5m398.9.2-2.4 2.8 2.8-2.4c1.5-1.4 2.7-2.6 2.7-2.8 0-.8-.8-.1-3.1 2.4m-319.1 35c.7.3 1.6.2 1.9-.1.4-.3-.2-.6-1.3-.5-1.1 0-1.4.3-.6.6m239 0c.7.3 1.6.2 1.9-.1.4-.3-.2-.6-1.3-.5-1.1 0-1.4.3-.6.6"/><path fill-opacity=".9" d="M232.8 8.7c.6.2 1.8.2 2.5 0 .6-.3.1-.5-1.3-.5s-1.9.2-1.2.5m6 0c.6.2 1.8.2 2.5 0 .6-.3.1-.5-1.3-.5s-1.9.2-1.2.5m-89.4 33.5-1.9 2.3 2.3-1.9c2.1-1.8 2.7-2.6 1.9-2.6-.2 0-1.2 1-2.3 2.2m174.1-.2c1 1.1 2 2 2.3 2s-.3-.9-1.3-2-2-2-2.3-2 .3.9 1.3 2m-183.1 9.2-1.9 2.3 2.3-1.9c2.1-1.8 2.7-2.6 1.9-2.6-.2 0-1.2 1-2.3 2.2m192.1-.2c1 1.1 2 2 2.3 2s-.3-.9-1.3-2-2-2-2.3-2 .3.9 1.3 2M175.9 69.7c-1.3 1.6-1.2 1.7.4.4.9-.7 1.7-1.5 1.7-1.7 0-.8-.8-.3-2.1 1.3m121.6.3c1 1.1 2 2 2.3 2s-.3-.9-1.3-2-2-2-2.3-2 .3.9 1.3 2m-128.1 6.2-1.9 2.3 2.3-1.9c2.1-1.8 2.7-2.6 1.9-2.6-.2 0-1.2 1-2.3 2.2m134.1-.2c1 1.1 2 2 2.3 2s-.3-.9-1.3-2-2-2-2.3-2 .3.9 1.3 2m-196.3 60c0 1.4.2 1.9.5 1.2.2-.6.2-1.8 0-2.5-.3-.6-.5-.1-.5 1.3m259 0c0 1.4.2 1.9.5 1.2.2-.6.2-1.8 0-2.5-.3-.6-.5-.1-.5 1.3M106.4 242.2l-1.9 2.3 2.3-1.9c2.1-1.8 2.7-2.6 1.9-2.6-.2 0-1.2 1-2.3 2.2m40.1-.2c1 1.1 2 2 2.3 2s-.3-.9-1.3-2-2-2-2.3-2 .3.9 1.3 2m179.9.2-1.9 2.3 2.3-1.9c1.2-1.1 2.2-2.1 2.2-2.3 0-.8-.8-.2-2.6 1.9m40.1-.2c1 1.1 2 2 2.3 2s-.3-.9-1.3-2-2-2-2.3-2 .3.9 1.3 2m-260 40c1 1.1 2 2 2.3 2s-.3-.9-1.3-2-2-2-2.3-2 .3.9 1.3 2m39.9.2-1.9 2.3 2.3-1.9c2.1-1.8 2.7-2.6 1.9-2.6-.2 0-1.2 1-2.3 2.2m180.1-.2c1 1.1 2 2 2.3 2s-.3-.9-1.3-2-2-2-2.3-2 .3.9 1.3 2m39.9.2-1.9 2.3 2.3-1.9c1.2-1.1 2.2-2.1 2.2-2.3 0-.8-.8-.2-2.6 1.9M2.2 445c0 1.4.2 1.9.5 1.2.2-.6.2-1.8 0-2.5-.3-.6-.5-.1-.5 1.3m469 0c0 1.4.2 1.9.5 1.2.2-.6.2-1.8 0-2.5-.3-.6-.5-.1-.5 1.3M177.8 562.7c32.5.2 85.9.2 118.5 0 32.5-.1 5.9-.2-59.3-.2s-91.8.1-59.2.2"/><path d="M226.4 9.2c-50.6 3.3-95.8 38.9-112.3 88.4-4.7 14.1-6.1 24.5-6.8 51.1l-.6 24.2-44.6.3c-41.3.3-44.9.4-48.1 2.2-4.9 2.6-6.9 4.5-9.4 9.1l-2.1 4v133c0 124.3.1 133.6 1.8 141.9 2.6 12.9 6 22.9 11.1 33 17 33.1 47.2 56.2 83.3 63.5 9.9 2.1 12.9 2.1 138.3 2.1s128.4 0 138.3-2.1c34.5-7 63.9-28.6 81.5-60 4.7-8.4 9.8-22.3 12.4-34l2.3-10.4v-133c0-106.9-.3-133.7-1.3-136.7-1.9-5.4-7.9-10.4-14.1-11.7-3.3-.7-20.2-1.1-47-1.1h-41.8l-.6-24.3c-.7-26.5-2-36.4-6.7-50.8-12.8-39.1-43.3-69.7-82.6-82.8-15.8-5.3-32-7.2-51-5.9m29.3 39.3c34.5 6.8 62.5 34.6 69.8 69.6 1.1 5.1 1.5 13.6 1.5 30.5V172H147v-23.4c0-25.9.8-32 6-45.6 10.2-26.2 34.9-47.6 62.6-54.1 11.5-2.7 27.5-2.8 40.1-.4m-116.2 188c5 2.4 10.5 7.9 13 13 1.5 3 2 6.1 2 12.5 0 9.7-1.7 14.2-7.5 20s-10.3 7.5-20 7.5-14.2-1.7-20-7.5-7.5-10.3-7.5-20 1.7-14.2 7.5-20c8.4-8.4 21.7-10.6 32.5-5.5m219.5-.2c5.4 2.6 10.9 7.9 13.5 13.2 1.5 3 2 6.1 2 12.5 0 9.7-1.7 14.2-7.5 20s-10.3 7.5-20 7.5-14.2-1.7-20-7.5c-5.3-5.3-7.4-10.4-7.8-19.1-.3-6.3 0-8.3 1.9-12.4 6.9-14.6 23.5-20.8 37.9-14.2"/><path fill-opacity=".1" d="m172.9 73.7-3.4 3.8 3.8-3.4c2-1.9 3.7-3.6 3.7-3.8 0-.8-.8 0-4.1 3.4m127.1-.2c1.3 1.4 2.6 2.5 2.8 2.5.3 0-.5-1.1-1.8-2.5s-2.6-2.5-2.8-2.5c-.3 0 .5 1.1 1.8 2.5m165 103.9c0 .2.8 1 1.8 1.7 1.5 1.3 1.6 1.2.3-.4s-2.1-2.1-2.1-1.3"/></svg>