<svg xmlns="http://www.w3.org/2000/svg" version="1.0" viewBox="0 0 571 362"><path fill-opacity=".1" d="M56.8 1.7c.7.3 1.6.2 1.9-.1.4-.3-.2-.6-1.3-.5-1.1 0-1.4.3-.6.6M3.1 54.6c0 1.1.3 1.4.6.6.3-.7.2-1.6-.1-1.9-.3-.4-.6.2-.5 1.3M238.2 179c0 1.9.2 2.7.5 1.7.2-.9.2-2.5 0-3.5-.3-.9-.5-.1-.5 1.8"/><path fill-opacity=".2" d="M171.8 1.7c62.2.2 164.2.2 226.5 0 62.2-.1 11.3-.2-113.3-.2s-175.5.1-113.2.2m.4 38c62.1.2 163.5.2 225.5 0 62.1-.1 11.3-.2-112.7-.2s-174.8.1-112.8.2M3.5 179.5c0 68.2.1 96 .2 61.7.2-34.3.2-90.1 0-124-.1-33.9-.2-5.9-.2 62.3m38 0c0 67.6.1 95.5.2 61.8.2-33.6.2-89 0-123-.1-34-.2-6.5-.2 61.2m525 .5c0 67.9.1 95.7.2 61.8.2-34 .2-89.6 0-123.5-.1-34-.2-6.2-.2 61.7m-38 0c0 67.4.1 94.9.2 61.3.2-33.7.2-88.9 0-122.5-.1-33.7-.2-6.2-.2 61.2m-328.3-4c0 1.4.2 1.9.5 1.2.2-.6.2-1.8 0-2.5-.3-.6-.5-.1-.5 1.3m168.9 7.6c0 1.1.3 1.4.6.6.3-.7.2-1.6-.1-1.9-.3-.4-.6.2-.5 1.3m-87.3 81.1c1.8.2 4.5.2 6 0s0-.4-3.3-.4-4.5.2-2.7.4"/><path fill-opacity=".3" d="M200.2 180.5c0 1.6.2 2.2.5 1.2.2-.9.2-2.3 0-3-.3-.6-.5.1-.5 1.8m168.9.1c0 1.1.3 1.4.6.6.3-.7.2-1.6-.1-1.9-.3-.4-.6.2-.5 1.3"/><path fill-opacity=".5" d="M97.3 67.7c5.4.2 13.9.2 19 0 5.1-.1.7-.3-9.8-.3-10.4 0-14.6.2-9.2.3m402.8 205.9c0 1.1.3 1.4.6.6.3-.7.2-1.6-.1-1.9-.3-.4-.6.2-.5 1.3m-46.8 19.1c5.3.2 14.1.2 19.5 0 5.3-.1.9-.3-9.8-.3s-15.1.2-9.7.3m-281.5 28c62.2.2 164.2.2 226.5 0 62.2-.1 11.3-.2-113.3-.2s-175.5.1-113.2.2"/><path fill-opacity=".6" d="m548.4 342.2-1.9 2.3 2.3-1.9c1.2-1.1 2.2-2.1 2.2-2.3 0-.8-.8-.2-2.6 1.9"/><path fill-opacity=".8" d="M21.9 16.7c-1.3 1.6-1.2 1.7.4.4.9-.7 1.7-1.5 1.7-1.7 0-.8-.8-.3-2.1 1.3M225 239.5c1.3 1.4 2.6 2.5 2.8 2.5.3 0-.5-1.1-1.8-2.5s-2.6-2.5-2.8-2.5c-.3 0 .5 1.1 1.8 2.5m268 19.9c0 .2.8 1 1.8 1.7 1.5 1.3 1.6 1.2.3-.4s-2.1-2.1-2.1-1.3M55.8 357.7c.7.3 1.6.2 1.9-.1.4-.3-.2-.6-1.3-.5-1.1 0-1.4.3-.6.6m457 0c.7.3 1.6.2 1.9-.1.4-.3-.2-.6-1.3-.5-1.1 0-1.4.3-.6.6"/><path fill-opacity=".9" d="M522 43.4c0 .2.8 1 1.8 1.7 1.5 1.3 1.6 1.2.3-.4s-2.1-2.1-2.1-1.3m-385 29c0 .2.8 1 1.8 1.7 1.5 1.3 1.6 1.2.3-.4s-2.1-2.1-2.1-1.3m82.9 54.3c-1.3 1.6-1.2 1.7.4.4.9-.7 1.7-1.5 1.7-1.7 0-.8-.8-.3-2.1 1.3m30 21-2.4 2.8 2.8-2.4c2.5-2.3 3.2-3.1 2.4-3.1-.2 0-1.4 1.2-2.8 2.7m68.6-.7c1 1.1 2 2 2.3 2s-.3-.9-1.3-2-2-2-2.3-2 .3.9 1.3 2m-1.6 67.7c-1.3 1.6-1.2 1.7.4.4s2.1-2.1 1.3-2.1c-.2 0-1 .8-1.7 1.7M430 285.4c0 .2.8 1 1.8 1.7 1.5 1.3 1.6 1.2.3-.4s-2.1-2.1-2.1-1.3"/><g stroke-width="0"><path d="M49.5 3.4C27.4 8 10 25.2 5.4 46.9c-2.1 10-2.1 254.4.1 265.5C9.4 333 25.4 350 46.3 355.8c5.8 1.6 21.7 1.7 238.2 1.7 185.9 0 233.1-.3 237.5-1.3 15.7-3.7 30.5-15.2 37.4-29.3 7-14.2 6.7-7.7 6.4-150.2l-.3-128.2-2.2-6.5C556 20.8 539.8 6.8 518.6 3c-9.3-1.6-461.2-1.2-469.1.4m469.3 37.7c2.6 1.3 5.4 3.8 7 6.2l2.7 4.1v257.2l-2.4 3.5c-1.3 1.9-4 4.6-6 6l-3.6 2.4h-463l-4.2-2.9c-2.5-1.6-5.1-4.6-6.3-7-2-4.3-2-5.1-1.8-131.8l.3-127.4 2.7-4.1c1.5-2.3 4.4-4.9 7-6.2l4.3-2.1h458.9z"/><path d="M82.4 69.1c-4.3 1.2-10.1 7.2-11.5 11.8-1.9 6.5-.4 12.5 4.4 17.5 5.8 6 10.5 6.9 35 6.4 18.3-.3 19.4-.4 23.7-2.8 7.9-4.4 11.4-12.4 9-20.3-1.5-5.2-8.5-12.1-13-13-4.8-1-44-.7-47.6.4m190.6 28c-17.8 2.7-34.6 11.4-47.5 24.5q-18.6 18.9-23.1 44.4c-6.7 38.6 14.8 76.8 51.6 91.7 12 4.9 17.2 5.8 32 5.7 11.9-.1 14.5-.4 22-2.9 24.4-7.9 42.4-23.3 52.6-45 6-12.9 7.9-21.6 7.8-35.5-.1-14.9-2.2-24-8.4-36.5-13.7-27.8-40.4-45.4-71.4-46.9-5-.3-12 0-15.6.5m29.2 38.8c17.3 6.6 28.5 22.4 29.5 41.7 1 17.5-6.1 32-20.3 41.5-27.4 18.3-65.4 3.5-72.4-28.2-.7-3.3-1.1-9.4-.8-14.7.4-8 .8-9.9 4.3-16.9 6.1-12.4 16.5-21.1 29.6-24.8 7.7-2.1 22.6-1.4 30.1 1.4m139.1 120c-14.9 3.8-19.7 19-9.6 30.2 5.1 5.6 8 6.1 33.7 5.7l22.3-.3 4.3-3c11.5-8 10.1-24.3-2.6-30.9-3.5-1.9-5.8-2.1-24.4-2.3-11.3-.1-21.9.2-23.7.6"/></g><path fill-opacity=".7" d="M343.9 239.7c-1.3 1.6-1.2 1.7.4.4.9-.7 1.7-1.5 1.7-1.7 0-.8-.8-.3-2.1 1.3M19 340.4c0 .2.8 1 1.8 1.7 1.5 1.3 1.6 1.2.3-.4s-2.1-2.1-2.1-1.3"/></svg>