<svg xmlns="http://www.w3.org/2000/svg" version="1.0" viewBox="0 0 549 446"><path fill-opacity=".1" d="M509.2 106c0 1.4.2 1.9.5 1.2.2-.6.2-1.8 0-2.5-.3-.6-.5-.1-.5 1.3"/><path fill-opacity=".2" d="M509.1 102.6c0 1.1.3 1.4.6.6.3-.7.2-1.6-.1-1.9-.3-.4-.6.2-.5 1.3m-350.4 19.1c64.5.2 170.1.2 234.5 0 64.5-.1 11.8-.2-117.2-.2s-181.7.1-117.3.2m-21.9 176c11.7.2 30.6.2 42 0 11.4-.1 1.8-.2-21.3-.2s-32.4.1-20.7.2m376.1 118c-1.3 1.6-1.2 1.7.4.4.9-.7 1.7-1.5 1.7-1.7 0-.8-.8-.3-2.1 1.3"/><path fill-opacity=".3" d="M115.4 315.5c0 9.9.2 13.8.3 8.7.2-5.1.2-13.2 0-18-.1-4.8-.3-.6-.3 9.3m400.5 97.2c-1.3 1.6-1.2 1.7.4.4s2.1-2.1 1.3-2.1c-.2 0-1 .8-1.7 1.7"/><path fill-opacity=".5" d="M190.8 2.7c46.8.2 123.6.2 170.5 0 46.8-.1 8.5-.2-85.3-.2s-132.1.1-85.2.2m-1.6 36c47.8.2 125.8.2 173.5 0 47.8-.1 8.7-.2-86.7-.2s-134.5.1-86.8.2m-129.3 19c-1.3 1.6-1.2 1.7.4.4.9-.7 1.7-1.5 1.7-1.7 0-.8-.8-.3-2.1 1.3m139.5 257.8c0 9.9.2 13.8.3 8.7.2-5.1.2-13.2 0-18-.1-4.8-.3-.6-.3 9.3m-10.2 90.2c47.8.2 125.8.2 173.5 0 47.8-.1 8.7-.2-86.7-.2s-134.5.1-86.8.2M34 411.4c0 .2.8 1 1.8 1.7 1.5 1.3 1.6 1.2.3-.4s-2.1-2.1-2.1-1.3m153.7 30.3c48.6.2 128 .2 176.5 0 48.6-.1 8.9-.2-88.2-.2s-136.8.1-88.3.2"/><path fill-opacity=".6" d="M492 58.4c0 .2.8 1 1.8 1.7 1.5 1.3 1.6 1.2.3-.4s-2.1-2.1-2.1-1.3"/><path fill-opacity=".8" d="M545.1 345.6c0 1.1.3 1.4.6.6.3-.7.2-1.6-.1-1.9-.3-.4-.6.2-.5 1.3m-539 1c0 1.1.3 1.4.6.6.3-.7.2-1.6-.1-1.9-.3-.4-.6.2-.5 1.3"/><g stroke-width="0"><path d="M87 5c-10.6 2.2-16.6 4.3-25.4 8.6C34.2 27.2 14 53.8 7.9 84.5c-2.1 10.4-2.1 263.6 0 274C16.4 401.3 49 433.3 91 440c4.3.6 67.2 1 185.5 1 145.6-.1 180.4-.3 186.5-1.4 20.6-3.7 39-13.6 54.2-29.2 17-17.4 25.8-37.4 27.9-63.4 1.5-18.6.6-253.7-1-261-6.2-28-18.9-48.2-40.1-64.1-7.5-5.6-23.7-13.3-34-16.1l-8.5-2.3-183-.2C104.4 3.1 95.1 3.2 87 5m378 35.9c11.7 4.2 18.2 8.3 26.6 16.6 13.2 13 18 25.4 18.5 47.5.1 5.8.1 12 0 13.8l-.1 3.2-234.2-.2-234.3-.3.2-14.4c.2-8.8.9-16.8 1.8-20.5 4.3-17.3 17.7-33.7 33.7-41.5 15.4-7.4 1.4-7 201.3-6.8l180 .2zm44.8 215.3-.3 99.3-2.7 7.3c-5.7 15.7-17.5 29-32 36.2-15.2 7.4-2.3 7-198.2 7-121.8 0-178-.3-182.5-1.1-4.1-.7-10.5-2.9-16.7-5.9-8.8-4.3-11-5.9-17.6-12.8-8-8.5-13.3-17.8-16.4-28.7-1.6-5.5-1.8-14.5-2.2-101.9-.2-52.7-.1-96.5.2-97.2.5-1.2 36.3-1.4 234.6-1.4h234z"/><path d="M116 315.5V333h83v-35h-83z"/></g><path fill-opacity=".7" d="M158.7 157.7c64.5.2 170.1.2 234.5 0 64.5-.1 11.8-.2-117.2-.2s-181.7.1-117.3.2m-21.9 176c11.7.2 30.6.2 42 0 11.4-.1 1.8-.2-21.3-.2s-32.4.1-20.7.2"/><path fill-opacity=".9" d="M512 28.4c0 .2.8 1 1.8 1.7 1.5 1.3 1.6 1.2.3-.4s-2.1-2.1-2.1-1.3m5.5 5.6c1 1.1 2 2 2.3 2s-.3-.9-1.3-2-2-2-2.3-2 .3.9 1.3 2M41.4 112c0 5.2.1 7.4.3 4.7.2-2.6.2-6.8 0-9.5-.2-2.6-.3-.4-.3 4.8m468.8 2c0 1.4.2 1.9.5 1.2.2-.6.2-1.8 0-2.5-.3-.6-.5-.1-.5 1.3M41.5 227.5c0 38.5.1 54.1.2 34.7.2-19.5.2-51 0-70-.1-19.1-.2-3.2-.2 35.3m-.1 88c0 9.9.2 13.8.3 8.7.2-5.1.2-13.2 0-18-.1-4.8-.3-.6-.3 9.3m-.1 22c0 2.2.2 3 .4 1.7.2-1.2.2-3 0-4-.3-.9-.5.1-.4 2.3m-35.2 6.1c0 1.1.3 1.4.6.6.3-.7.2-1.6-.1-1.9-.3-.4-.6.2-.5 1.3M31.5 408c1 1.1 2 2 2.3 2s-.3-.9-1.3-2-2-2-2.3-2 .3.9 1.3 2m486.4 1.7c-1.3 1.6-1.2 1.7.4.4.9-.7 1.7-1.5 1.7-1.7 0-.8-.8-.3-2.1 1.3m-5 5-2.4 2.8 2.8-2.4c2.5-2.3 3.2-3.1 2.4-3.1-.2 0-1.4 1.2-2.8 2.7"/></svg>