<svg xmlns="http://www.w3.org/2000/svg" version="1.0" viewBox="0 0 551 580"><path fill-opacity=".3" d="M32.5 375c0 98.7.1 139.1.2 89.8.2-49.4.2-130.2 0-179.5-.1-49.4-.2-9-.2 89.7m487 0c0 98.7.1 139.1.2 89.8.2-49.4.2-130.2 0-179.5-.1-49.4-.2-9-.2 89.7m-279 85c0 27.2.1 38.4.2 24.7.2-13.6.2-35.8 0-49.5-.1-13.6-.2-2.4-.2 24.8"/><path fill-opacity=".7" d="M257.8 195.7c10 .2 26.4.2 36.5 0 10-.1 1.8-.2-18.3-.2s-28.3.1-18.2.2m-144.5 197c25.1.2 66.3.2 91.5 0 25.1-.1 4.5-.2-45.8-.2s-70.9.1-45.7.2m18.9 57c14.7.2 39 .2 54 0 15-.1 3-.2-26.7-.2s-42 .1-27.3.2m0 20c14.7.2 39 .2 54 0 15-.1 3-.2-26.7-.2s-42 .1-27.3.2"/><g stroke-width="0"><path d="M79.5 15.8c-2.8 1.7-5.3 8.2-33.7 85.8L15 185.5v380.4l2.4 2.8 2.4 2.8h512.4l2.4-2.8 2.4-2.8V185.3l-30.6-83.4C489 54.2 475 17.6 473.9 16.5c-1.9-2-3.4-2-196.7-2.3-187.7-.2-194.8-.1-197.7 1.6m157 18.9c-.3 1.6-3.2 32.9-6.5 69.8-3.3 36.8-6.2 68.5-6.5 70.2l-.6 3.3h-93.4c-51.4 0-93.5-.2-93.5-.5 0-.2 11.5-31.8 25.6-70.2s26.1-71 26.6-72.6l1-2.7H237zm68.1 65.3c3.4 37.1 6.4 69.9 6.7 72.7l.6 5.3h-72.1l.6-2.8c.3-1.5 3.3-33.8 6.6-71.7 3.4-38 6.4-69.6 6.6-70.3.3-1 5.3-1.2 22.6-1l22.2.3zm158.9-66.3c2.3 6.1 52.5 143.4 52.5 143.8 0 .5-186.9.7-187.1.2 0-.1-3.1-32.9-6.8-73L315.4 32h73.7c69.3 0 73.7.1 74.4 1.7m-150.7 188 .2 26.3h-74v-25.8c0-14.2.3-26.2.7-26.5.4-.4 16.9-.6 36.7-.5l36.1.3zM222 226c0 31.9.5 35.6 4.8 37.9 2.9 1.5 95.5 1.5 98.4 0 4.3-2.3 4.8-6 4.8-37.9v-30h190v358H32V196h190z"/><path d="m62.6 395.5-2.6 2.4v123.2l2.4 2.4c1.3 1.3 3.9 2.6 5.7 3 1.9.3 44.3.5 94.2.3l90.9-.3 2.4-2.8 2.4-2.8v-123l-2.5-2.4-2.4-2.5H65.3zm178.4 64V509H77v-99h164z"/><path d="M102.5 433.2c-3.2 1.7-4.5 3.9-4.5 7.9 0 2.9.6 4.2 2.6 5.8 2.6 2.1 3.5 2.1 58.4 2.1 54 0 55.8-.1 58.2-2 1.4-1.1 2.8-3.1 3-4.4.7-3.6-1.7-8.5-4.7-9.6-3.8-1.4-110.4-1.3-113 .2m-1.9 38.9c-2.6 2.1-3.5 6.5-2 10.4 1.7 4.4 3.3 4.5 60.4 4.5 59.2 0 59.2 0 60.7-5.8 1.1-4.1.5-6.5-2.3-9l-2.5-2.2h-55.8c-55 0-55.9 0-58.5 2.1"/></g><path fill-opacity=".4" d="M77.5 460c0 27.2.1 38.4.2 24.7.2-13.6.2-35.8 0-49.5-.1-13.6-.2-2.4-.2 24.8"/><path fill-opacity=".5" d="M257.8 247.7c10 .2 26.4.2 36.5 0 10-.1 1.8-.2-18.3-.2s-28.3.1-18.2.2m-4.5 18c12.5.2 32.9.2 45.5 0 12.5-.1 2.2-.2-22.8-.2s-35.3.1-22.7.2M59.5 459c0 32.7.1 46.1.2 29.7.2-16.3.2-43.1 0-59.5-.1-16.3-.2-2.9-.2 29.8"/><path fill-opacity=".9" d="M239.4 222c0 14.6.2 20.5.3 13.2.2-7.2.2-19.2 0-26.5-.1-7.2-.3-1.3-.3 13.3m73 0c0 14.6.2 20.5.3 13.2.2-7.2.2-19.2 0-26.5-.1-7.2-.3-1.3-.3 13.3"/><path fill-opacity=".6" d="M14.5 375c0 103.7.1 146.1.2 94.2.2-51.8.2-136.6 0-188.5-.1-51.8-.2-9.4-.2 94.3m523 0c0 103.7.1 146.1.2 94.2.2-51.8.2-136.6 0-188.5-.1-51.8-.2-9.4-.2 94.3m-279 85c0 32.7.1 46.1.2 29.7.2-16.3.2-43.1 0-59.5-.1-16.3-.2-2.9-.2 29.8"/><path fill-opacity=".2" d="M118.3 410.7c22.4.2 59 .2 81.5 0 22.4-.1 4-.2-40.8-.2s-63.2.1-40.7.2m13.9 21c14.7.2 39 .2 54 0 15-.1 3-.2-26.7-.2s-42 .1-27.3.2m0 56c14.7.2 39 .2 54 0 15-.1 3-.2-26.7-.2s-42 .1-27.3.2"/></svg>