<svg xmlns="http://www.w3.org/2000/svg" version="1.0" viewBox="0 0 376 412"><path fill-opacity=".3" d="M269.5 256c1 1.1 2 2 2.3 2s-.3-.9-1.3-2-2-2-2.3-2 .3.9 1.3 2m-33.4 21.6c0 1.1.3 1.4.6.6.3-.7.2-1.6-.1-1.9-.3-.4-.6.2-.5 1.3M130 317.4c0 .2.8 1 1.8 1.7 1.5 1.3 1.6 1.2.3-.4s-2.1-2.1-2.1-1.3m111 37c0 .2.8 1 1.8 1.7 1.5 1.3 1.6 1.2.3-.4s-2.1-2.1-2.1-1.3m-90 16.1c1.3 1.4 2.6 2.5 2.8 2.5.3 0-.5-1.1-1.8-2.5s-2.6-2.5-2.8-2.5c-.3 0 .5 1.1 1.8 2.5"/><path fill-opacity=".4" d="M212 115.4c0 .2.8 1 1.8 1.7 1.5 1.3 1.6 1.2.3-.4s-2.1-2.1-2.1-1.3m-9.1 32.3c-1.3 1.6-1.2 1.7.4.4.9-.7 1.7-1.5 1.7-1.7 0-.8-.8-.3-2.1 1.3m66.9 100c.6.2 1.8.2 2.5 0 .6-.3.1-.5-1.3-.5s-1.9.2-1.2.5M118 254.4c0 .2.8 1 1.8 1.7 1.5 1.3 1.6 1.2.3-.4s-2.1-2.1-2.1-1.3m121 39c0 .2.8 1 1.8 1.7 1.5 1.3 1.6 1.2.3-.4s-2.1-2.1-2.1-1.3"/><path fill-opacity=".6" d="m144.4 83.2-1.9 2.3 2.3-1.9c2.1-1.8 2.7-2.6 1.9-2.6-.2 0-1.2 1-2.3 2.2m22.7 51.4c0 1.1.3 1.4.6.6.3-.7.2-1.6-.1-1.9-.3-.4-.6.2-.5 1.3m96.9 38.8c0 .8.4 1.7.9 2 .5.4.7-.3.4-1.4-.6-2.3-1.3-2.6-1.3-.6m-4.8 58.6c0 1.4.2 1.9.5 1.2.2-.6.2-1.8 0-2.5-.3-.6-.5-.1-.5 1.3m-53.1 14.6c0 1.1.3 1.4.6.6.3-.7.2-1.6-.1-1.9-.3-.4-.6.2-.5 1.3m144.4 3.4c1 1.1 2 2 2.3 2s-.3-.9-1.3-2-2-2-2.3-2 .3.9 1.3 2M232 299.4c0 .2.8 1 1.8 1.7 1.5 1.3 1.6 1.2.3-.4s-2.1-2.1-2.1-1.3"/><path fill-opacity=".7" d="M303.9 178.7c-1.3 1.6-1.2 1.7.4.4.9-.7 1.7-1.5 1.7-1.7 0-.8-.8-.3-2.1 1.3m6.9 7c.6.2 1.8.2 2.5 0 .6-.3.1-.5-1.3-.5s-1.9.2-1.2.5m26.2-.3c0 .2.8 1 1.8 1.7 1.5 1.3 1.6 1.2.3-.4s-2.1-2.1-2.1-1.3m-68.7 53.3c.9.2 2.5.2 3.5 0 .9-.3.1-.5-1.8-.5s-2.7.2-1.7.5M143.2 246c0 1.4.2 1.9.5 1.2.2-.6.2-1.8 0-2.5-.3-.6-.5-.1-.5 1.3m200 80c0 1.4.2 1.9.5 1.2.2-.6.2-1.8 0-2.5-.3-.6-.5-.1-.5 1.3"/><path fill-opacity=".5" d="M193.8 108.7c.7.3 1.6.2 1.9-.1.4-.3-.2-.6-1.3-.5-1.1 0-1.4.3-.6.6m54 34c.7.3 1.6.2 1.9-.1.4-.3-.2-.6-1.3-.5-1.1 0-1.4.3-.6.6m-110 67c.6.2 1.8.2 2.5 0 .6-.3.1-.5-1.3-.5s-1.9.2-1.2.5m40.5 0c.9.2 2.3.2 3 0 .6-.3-.1-.5-1.8-.5-1.6 0-2.2.2-1.2.5m-26.2 35.9c0 1.1.3 1.4.6.6.3-.7.2-1.6-.1-1.9-.3-.4-.6.2-.5 1.3m63.1.4c0 1.4.2 1.9.5 1.2.2-.6.2-1.8 0-2.5-.3-.6-.5-.1-.5 1.3m25.7 6.7c-1.3 1.6-1.2 1.7.4.4.9-.7 1.7-1.5 1.7-1.7 0-.8-.8-.3-2.1 1.3m-18.6 8c.9.2 2.3.2 3 0 .6-.3-.1-.5-1.8-.5-1.6 0-2.2.2-1.2.5m145.9 8.3c0 1.4.2 1.9.5 1.2.2-.6.2-1.8 0-2.5-.3-.6-.5-.1-.5 1.3m-189.4 3.7c.7.3 1.6.2 1.9-.1.4-.3-.2-.6-1.3-.5-1.1 0-1.4.3-.6.6m125.1 15c-1.3 1.6-1.2 1.7.4.4.9-.7 1.7-1.5 1.7-1.7 0-.8-.8-.3-2.1 1.3m-116 7c-1.3 1.6-1.2 1.7.4.4s2.1-2.1 1.3-2.1c-.2 0-1 .8-1.7 1.7m25.9 52c.7.3 1.6.2 1.9-.1.4-.3-.2-.6-1.3-.5-1.1 0-1.4.3-.6.6m-39 35c.7.3 1.6.2 1.9-.1.4-.3-.2-.6-1.3-.5-1.1 0-1.4.3-.6.6m56 8c.6.2 1.8.2 2.5 0 .6-.3.1-.5-1.3-.5s-1.9.2-1.2.5m53 9c.6.2 1.8.2 2.5 0 .6-.3.1-.5-1.3-.5s-1.9.2-1.2.5"/><path fill-opacity=".1" d="m220.4 89.2-1.9 2.3 2.3-1.9c2.1-1.8 2.7-2.6 1.9-2.6-.2 0-1.2 1-2.3 2.2m-71.9 2.7c-.3.5-.2 1.2.3 1.5s.9-.1.9-.9c0-1.7-.3-1.9-1.2-.6m116 5.1c1 1.1 2 2 2.3 2s-.3-.9-1.3-2-2-2-2.3-2 .3.9 1.3 2m45 37c1 1.1 2 2 2.3 2s-.3-.9-1.3-2-2-2-2.3-2 .3.9 1.3 2M130 185.4c0 .2.8 1 1.8 1.7 1.5 1.3 1.6 1.2.3-.4s-2.1-2.1-2.1-1.3m-18 77c0 .2.8 1 1.8 1.7 1.5 1.3 1.6 1.2.3-.4s-2.1-2.1-2.1-1.3m92.9 9.3c-1.3 1.6-1.2 1.7.4.4.9-.7 1.7-1.5 1.7-1.7 0-.8-.8-.3-2.1 1.3M173.5 303c1 1.1 2 2 2.3 2s-.3-.9-1.3-2-2-2-2.3-2 .3.9 1.3 2m-33.3 42c0 1.4.2 1.9.5 1.2.2-.6.2-1.8 0-2.5-.3-.6-.5-.1-.5 1.3m118.3 53c1 1.1 2 2 2.3 2s-.3-.9-1.3-2-2-2-2.3-2 .3.9 1.3 2"/><path fill-opacity=".9" d="M220.9 89.7c-1.3 1.6-1.2 1.7.4.4s2.1-2.1 1.3-2.1c-.2 0-1 .8-1.7 1.7m52.2 25.9c0 1.1.3 1.4.6.6.3-.7.2-1.6-.1-1.9-.3-.4-.6.2-.5 1.3m34.9 17.8c0 .2.8 1 1.8 1.7 1.5 1.3 1.6 1.2.3-.4s-2.1-2.1-2.1-1.3m-180 51c0 .2.8 1 1.8 1.7 1.5 1.3 1.6 1.2.3-.4s-2.1-2.1-2.1-1.3m15.1 3.2c0 1.1.3 1.4.6.6.3-.7.2-1.6-.1-1.9-.3-.4-.6.2-.5 1.3m145.8 43.1c-1.3 1.6-1.2 1.7.4.4s2.1-2.1 1.3-2.1c-.2 0-1 .8-1.7 1.7m-247 13c-1.3 1.6-1.2 1.7.4.4.9-.7 1.7-1.5 1.7-1.7 0-.8-.8-.3-2.1 1.3M159 264.4c0 .2.8 1 1.8 1.7 1.5 1.3 1.6 1.2.3-.4s-2.1-2.1-2.1-1.3m-6 6c0 .2.8 1 1.8 1.7 1.5 1.3 1.6 1.2.3-.4s-2.1-2.1-2.1-1.3m50.4 1.8-1.9 2.3 2.3-1.9c2.1-1.8 2.7-2.6 1.9-2.6-.2 0-1.2 1-2.3 2.2m147 17-1.9 2.3 2.3-1.9c1.2-1.1 2.2-2.1 2.2-2.3 0-.8-.8-.2-2.6 1.9M174.5 303c1 1.1 2 2 2.3 2s-.3-.9-1.3-2-2-2-2.3-2 .3.9 1.3 2"/><path d="M161.6 23.1c-3.4 2.7-3.4 6.4.1 13.7l2.7 5.6-1.8 8.5c-2.6 12.5-8.8 24.2-17.5 32.5l-4 3.9-4.4-3.9c-2.4-2.1-5.9-5.2-7.8-6.8-1.8-1.7-6.1-5.4-9.3-8.3-3.3-2.9-6.7-5.3-7.7-5.3s-4.9 2.3-8.6 5.2C90.3 78 70.8 85.3 50 87.9c-14.4 1.9-14.5 5.1-.5 13.6 5.2 3.1 9.5 6.2 9.5 6.9-.1.6-1.7 2.3-3.8 3.7-14.9 10.3-43.9 32.4-44.6 34-1.4 3 1.7 5.5 8.7 6.9 12.9 2.5 19.7 4.2 19.7 5 0 .5-5.6 8.6-12.5 18.1s-12.5 18-12.5 19c0 2.8 2 3.5 13.7 5.4 6.2 1 11.3 2.1 11.3 2.5s-3.2 11.2-7.1 24l-7.1 23.4 2.2 1.8c2.7 2.2 4.3 1.5 10.9-4.7 10.6-9.8 23.4-20.4 24.2-20 .4.3 1 2.3 1.4 4.5 1 5.7 4 8.3 7.1 6.2.6-.4 4.1-6.6 7.8-13.7 3.7-7.2 7.1-13.3 7.5-13.8.4-.4 4.4 3.9 8.8 9.5l8.2 10.2v6.6c0 13.1 8 25.8 19.7 31.6 3 1.4 5.4 2.8 5.4 2.9 0 .2-1.2 2.7-2.7 5.6-2.5 4.8-2.8 6.4-2.8 15.4 0 8.8.3 10.7 2.7 15.7 3.1 6.8 9.9 13.7 16.3 16.7 2.5 1.1 4.5 2.3 4.5 2.5s-.9 2.3-1.9 4.7C134.4 354 152.6 381 177 381c5.4 0 13.6-2.3 18.3-5l3.4-2 2.3 5.1c3.2 6.6 11.4 14.1 18.8 17 4.2 1.7 7.8 2.3 13.9 2.3 7.1 0 8.9-.4 14.4-3.1l6.3-3.2 5.1 4.9c6.5 6 11.6 8.6 19.5 9.9 15.8 2.6 33.4-7.6 39-22.7 1.8-4.6 2.1-7.2 1.8-14-.4-8.2-.4-8.3 2.1-8.8 13.3-2.9 20.6-8.5 26.4-20.4 2.9-5.8 3.2-7.4 3.2-15.5 0-8-.3-9.7-3-15-1.6-3.3-3.1-6.3-3.3-6.7s1.5-1.6 3.7-2.8c5.7-2.9 12.2-9.8 15.6-16.7 2.6-5.1 2.9-6.9 3-14.8 0-8-.3-9.7-2.9-15-3.6-7.2-10.5-14.2-17.2-17.3l-5-2.3 3.4-6.8c2.9-5.8 3.3-7.7 3.3-14.1 0-11.7-4.3-21.5-12.7-28.9-4.5-4-13.5-8.1-17.6-8.1-1.7 0-1.9-.4-1.3-2.3 3-9.6 3.6-12.6 3-17-1-8.4-4.3-15.4-10.2-21.7-6.7-7.2-13.6-10.8-22.3-11.6l-6.5-.6v-8.2c-.1-6.7-.6-9.2-2.9-14.4-9.8-21.4-38.8-27.8-55.9-12.2-2.9 2.7-6.5 7.1-7.8 9.7l-2.6 5.2c-.1.2-2.2-.5-4.8-1.4-2.5-1-4.3-2-4.1-2.3.8-.7-11.8-35.8-18.9-52.7-7.9-18.9-10.2-23.6-12.4-25.2-2.5-1.9-7.5-1.5-10.5.8m19.9 61.1c4.9 14.2 5.2 16 3.7 16.5-5.6 1.9-10.2 4.4-13.3 7.1l-3.5 3-6.4-5.5c-3.6-3-8.2-6.9-10.2-8.6-2.1-1.7-3.8-3.5-3.8-3.9s2.4-3.2 5.3-6.3c6.5-6.9 12-15.8 14.8-24.4l2.3-6.6 2.8 6.4c1.6 3.5 5.4 13.5 8.3 22.3m75.1 6.3c6 2.5 11.2 7.3 14 13.1 7.3 14.9-.6 33.1-16.3 38.1-4.7 1.5-5.8 1.5-8.6.4-1.8-.8-6-2.1-9.4-3l-6.3-1.6v-4.2c0-6.8-3.1-14.4-9.4-22.8-1.4-1.9 1.9-9.6 5.7-13.5 7.1-7.3 21.2-10.3 30.3-6.5m-53.7 19.1c7.5 2.2 15.3 10 17.5 17.3.9 3 1.6 6.9 1.6 8.7 0 2.8-.4 3.2-3.4 3.8-5 1-15.1 7.9-18.2 12.6-1.8 2.7-3.3 4-4.3 3.6-.9-.2-3.6-1.2-6-2.1s-7.1-1.7-10.5-1.8c-7.3-.3-8.2-.8-10.1-5.3-4.5-10.7-2.3-21.7 6-30 7.9-7.9 16.5-10.1 27.4-6.8m93.9 26c16.9 8.4 20.1 33 6 44.9-5.8 4.9-7 5.1-11.9 1.6-5.2-3.8-13.1-6.3-21-6.4l-5.9-.2v-3.6c0-5-2.5-12.9-5.5-17.4-1.4-2-2.5-3.9-2.3-4s2.3-1.3 4.8-2.5c6-3 11.6-7.5 13.7-11 2-3.4 2.8-3.7 10.9-3.9 4.6-.1 7.2.5 11.2 2.5m-139.5 5.3c1 .4 2.7 2.9 3.6 5.6 1 2.8 2.1 5.8 2.5 6.7.6 1.2 0 2.1-2.1 3.1-4.5 2.4-10.6 9.2-13.8 15.4-2.3 4.5-3.1 7.6-3.5 14l-.5 8.1-3.7-1.2c-5.6-2-11.1-6.9-14.4-12.8-2.5-4.6-2.9-6.3-2.9-12.8.1-11.9 5.4-20.3 15.9-25.1 4.2-1.9 15.2-2.5 18.9-1m83.3 8.5c2.7 1.3 6.6 4.2 8.5 6.4 3.6 4.3 6.9 12.7 6.9 17.9 0 9.1-7 20.2-15.4 24.5-6.3 3.2-15.9 3.6-22.4.8-10.8-4.6-18.3-17-16.8-27.7.8-5.8 4-13 7.4-16.7 7.1-7.6 21.6-10 31.8-5.2m-51.7 12.4 4.4 1.7.1 10c.1 10.8 1.8 16.1 7.4 22.7 2.5 2.9 2.5 3.1.6 4-1 .6-4.1 3.4-6.9 6.2-4.2 4.4-5.4 5.1-7.5 4.5-3.8-1.1-12.1-1-15.9.1-4 1.1-7.1-.2-11.7-5.2-4.3-4.4-6.4-8.9-7.1-14.7-1.5-12.5 6.6-25.7 18.2-29.9 4.5-1.6 13.4-1.3 18.4.6m92.6 24.6c13.3 6.1 19.5 20.6 14.6 33.8-4.3 11.2-14.3 18.2-26.1 18.2-9.1 0-11-1.2-11-7.3 0-7.2-3.4-17-7.5-21.8-1.9-2.3-3.5-4.3-3.5-4.5s2.4-2.9 5.3-5.9 6.2-7.4 7.3-9.6c2.1-4.7 2.7-5 10.4-5.2 3.8 0 7 .6 10.5 2.3m43.7 1.5c8.8 3.9 15.7 14.2 15.8 23.7 0 7.9-2.6 14.2-8.5 20.1-8.6 8.5-19.1 10.3-30.2 5.1-2.4-1.1-4.3-2.2-4.3-2.4s1.1-2 2.5-4c6.5-9.5 7.3-22.6 2.1-34.5l-1.5-3.7 4.7-3.7c4.4-3.5 5-3.6 9.9-3.1 2.8.3 7.1 1.4 9.5 2.5M218 207.5c3 1.1 7.4 1.7 13.2 1.6 10.3-.1 12.3 1.1 16.5 9.6 7.5 15.5-.6 35.5-16.6 40.8-5.6 1.8-15.3 1.7-17.2-.2-.7-.7-.6-2.5.2-5.7 3.2-13-3-29.3-14-36.9-2.4-1.6-2.4-1.7-.5-3.8 3.6-4.1 9.8-8.1 11.9-7.6 1.1.3 4 1.3 6.5 2.2m-71.7 2.9c4.2 1.6 10.7 5.7 10.7 6.9 0 .4-1.6 2.4-3.5 4.4-8.2 8.5-11.8 24-8.1 34.9.9 2.6 1.6 5.1 1.6 5.5s-2.4 1.1-5.4 1.4c-15.4 2-30.6-11-30.6-26.1 0-8 2.6-14.2 8.6-20 7.9-7.7 17.5-10.2 26.7-7m44.5 11.2c9.2 4.6 16.2 15.1 16.2 24.5 0 10.5-9.1 22.5-19.4 25.4-19 5.5-37.3-9-35.3-28.1 1-9.4 6.6-17.7 14.9-21.8 7.3-3.6 16.4-3.6 23.6 0m105.7 22.8c12.9 6 18.7 21 13.4 35-3.8 10.2-14.7 17.1-26.1 16.4-4-.2-5.2-.7-5-1.7 1.7-8 2-11.7 1.2-16.6-2-12.1-8.8-21.9-19-27-2.7-1.4-5-2.7-5-2.9 0-.3.3-1.1.6-1.9.5-1.3 1.1-1.3 5.2 0 6.1 1.9 16.3 1.2 22.2-1.5 5.8-2.6 6.5-2.6 12.5.2m44.8-.8c22.2 7.6 24.3 39.9 3.2 49.8-6.6 3.2-7 3.2-13.6.2-3-1.4-7.9-2.8-11-3.1l-5.7-.7 2.4-4.7c4.8-9.2 5-22.1.4-31.5-1.1-2.3-2-4.5-2-4.8s2.1-.8 4.8-1.2c2.6-.4 6.7-1.7 9.2-3 5.6-2.9 6.5-3 12.3-1m-80.9 16.2c4.4 3 9.1 9.8 10.6 15.2 2.2 8 .4 18.7-3.3 19.4-10.9 2.1-14.1 3-17.2 5.2-3.8 2.5-5.5 3-5.5 1.5 0-.5-2.5-3.4-5.5-6.5l-5.5-5.5 1.1-5.2c.6-2.9.8-7.7.5-11l-.7-5.8 4.8-2.5c2.6-1.3 6.2-3.8 7.8-5.6 3.6-3.7 6.6-3.6 12.9.8m-42.9 9.2c3.2.5 6.2.7 6.8.3 1.6-1 2.7 2 2.7 7.9 0 8.3-.3 8.7-5.3 7.6-6.1-1.4-16.1-.2-22.3 2.6-3 1.4-7.6 4.8-10.3 7.5l-4.8 5-3.3-3.2c-3.3-3.2-6.3-8.4-7.3-12.8-.6-2.5-.6-2.5 6.1-2.6 9.2-.2 16.9-3.2 23.5-9.3 3.2-3.1 5.8-4.7 6.9-4.4.9.3 4.2.9 7.3 1.4m-62 3c1 1.2 3.3 3 5.1 4.1 2.5 1.5 3.4 2.9 3.9 6.2 1.1 6.9 5.3 14.9 10.6 20.3l5 5.1-2.6 3.2c-1.5 1.7-4.8 4.4-7.4 5.9-4 2.4-5.6 2.7-13.1 2.7s-9.1-.3-13.2-2.7c-9.6-5.7-14.5-15.1-13.6-26.2.8-10 6.4-18.5 12.2-18.7 1.7-.1 4.2-.5 5.6-.9 4.1-1.3 5.6-1.1 7.5 1m70.1 22.9c10.4 4.7 15.9 13.2 15.8 24.6-.1 14.2-9.8 25.6-23.3 27.2l-4.8.5-1.1-6.6c-2-12-8.2-21.3-17.8-26.8-3-1.6-5.4-3.2-5.4-3.4 0-.3.9-2.2 2-4.3 2.4-4.8 8.1-9.6 13.5-11.5 5.8-2.1 16.1-1.9 21.1.3m101.9 6.5c17.9 8.3 21.7 31.1 7.3 44.1-9.2 8.3-24.2 10-32.6 3.6l-2.2-1.6 2-5.3c3.7-9.6 2.2-22.1-3.6-31.3l-2.4-3.8 3.8-3.1c4.6-3.8 7.9-4.8 16.2-4.9 4.8-.1 7.8.5 11.5 2.3m-49.9 3.3c7.3 2.5 14.8 10.4 17 17.8 2.7 9.5.3 19.5-6.5 26.8-9.3 10.1-28.7 10.2-38.6.2-5.9-5.8-6.3-7.9-2.8-14.6 2.4-4.7 2.8-6.7 2.9-14.7.2-10.6.7-11.5 7.9-14.8 6-2.9 13.1-3.1 20.1-.7M189.9 321c9.1 4.6 14.7 15.4 13.8 26.6-2.1 26.6-38.6 33.7-51 9.9-1.3-2.7-2.2-6.5-2.4-11.5-.4-6.4-.1-8.2 1.9-12 2.2-4.3 2.5-4.5 8.8-5.6 7.6-1.4 12.1-3.2 17-6.8 4.3-3.1 6.9-3.2 11.9-.6m50.6 31c2.9 4.2 10.9 10 16 11.7 3.8 1.3 3.7 4.2-.1 12-4.1 8.5-14.1 14.3-24.5 14.3-9.3 0-20.2-7-24-15.4-2.5-5.5-2.4-7.2.8-13.1l2.6-5.1 7-1.1c4-.6 9.3-2.4 12.6-4.1 3.1-1.7 5.9-3.1 6.2-3.1.4-.1 1.9 1.7 3.4 3.9m57 4c.3.5 3.2 1.9 6.5 3.1 6.7 2.4 7.2 3.4 7.1 13.7 0 3.8-.7 7.9-1.9 10.5-5.3 12-19.9 18.3-33.3 14.4-5.6-1.7-13.3-7.3-14.4-10.6-.3-1 .7-4.2 2.5-7.6 1.6-3.1 3.3-7.4 3.6-9.5.6-3.7.7-3.8 5.8-4.5 6.1-.8 11.7-3.2 17.1-7.4 4.2-3.2 6-3.7 7-2.1"/><path fill-opacity=".8" d="M270 89.4c0 .2.8 1 1.8 1.7 1.5 1.3 1.6 1.2.3-.4s-2.1-2.1-2.1-1.3m-6 6c0 .2.8 1 1.8 1.7 1.5 1.3 1.6 1.2.3-.4s-2.1-2.1-2.1-1.3m38 44c0 .2.8 1 1.8 1.7 1.5 1.3 1.6 1.2.3-.4s-2.1-2.1-2.1-1.3m-172.6 8.8-1.9 2.3 2.3-1.9c2.1-1.8 2.7-2.6 1.9-2.6-.2 0-1.2 1-2.3 2.2m123.5 51.5c-1.3 1.6-1.2 1.7.4.4.9-.7 1.7-1.5 1.7-1.7 0-.8-.8-.3-2.1 1.3M241 210.4c0 .2.8 1 1.8 1.7 1.5 1.3 1.6 1.2.3-.4s-2.1-2.1-2.1-1.3m-80.6 15.8-1.9 2.3 2.3-1.9c2.1-1.8 2.7-2.6 1.9-2.6-.2 0-1.2 1-2.3 2.2m87 33-1.9 2.3 2.3-1.9c2.1-1.8 2.7-2.6 1.9-2.6-.2 0-1.2 1-2.3 2.2m-126.2 32.3c0 1.6.2 2.2.5 1.2.2-.9.2-2.3 0-3-.3-.6-.5.1-.5 1.8m73.2 9.7-1.9 2.3 2.3-1.9c1.2-1.1 2.2-2.1 2.2-2.3 0-.8-.8-.2-2.6 1.9m53.6 47.2c0 .2.8 1 1.8 1.7 1.5 1.3 1.6 1.2.3-.4s-2.1-2.1-2.1-1.3M206.5 388c1 1.1 2 2 2.3 2s-.3-.9-1.3-2-2-2-2.3-2 .3.9 1.3 2m58 3c1 1.1 2 2 2.3 2s-.3-.9-1.3-2-2-2-2.3-2 .3.9 1.3 2m-5.5 6.5c1.3 1.4 2.6 2.5 2.8 2.5.3 0-.5-1.1-1.8-2.5s-2.6-2.5-2.8-2.5c-.3 0 .5 1.1 1.8 2.5m50.9-.8c-1.3 1.6-1.2 1.7.4.4s2.1-2.1 1.3-2.1c-.2 0-1 .8-1.7 1.7"/><path fill-opacity=".2" d="M242.8 79.7c.6.2 1.8.2 2.5 0 .6-.3.1-.5-1.3-.5s-1.9.2-1.2.5m39.3 35.9c0 1.1.3 1.4.6.6.3-.7.2-1.6-.1-1.9-.3-.4-.6.2-.5 1.3m1.7 8.1c.6.2 1.8.2 2.5 0 .6-.3.1-.5-1.3-.5s-1.9.2-1.2.5m-130.9 38c-1.3 1.6-1.2 1.7.4.4.9-.7 1.7-1.5 1.7-1.7 0-.8-.8-.3-2.1 1.3M340.2 212c0 1.4.2 1.9.5 1.2.2-.6.2-1.8 0-2.5-.3-.6-.5-.1-.5 1.3m-229 24c0 1.4.2 1.9.5 1.2.2-.6.2-1.8 0-2.5-.3-.6-.5-.1-.5 1.3m-43.4 3.7c.7.3 1.6.2 1.9-.1.4-.3-.2-.6-1.3-.5-1.1 0-1.4.3-.6.6m83.3 30.6c.2.1 1.3.9 2.4 1.7 1.9 1.4 1.9 1.4.6-.3-.7-.9-1.8-1.7-2.4-1.7q-.9 0-.6.3m115.7 33.4c.7.3 1.6.2 1.9-.1.4-.3-.2-.6-1.3-.5-1.1 0-1.4.3-.6.6m-63.7 40.9c0 1.1.3 1.4.6.6.3-.7.2-1.6-.1-1.9-.3-.4-.6.2-.5 1.3m137.8 8.1c-1.3 1.6-1.2 1.7.4.4s2.1-2.1 1.3-2.1c-.2 0-1 .8-1.7 1.7m-164.1 19c.7.3 1.6.2 1.9-.1.4-.3-.2-.6-1.3-.5-1.1 0-1.4.3-.6.6m35.2 8.7c0 .2.8 1 1.8 1.7 1.5 1.3 1.6 1.2.3-.4s-2.1-2.1-2.1-1.3m18.8 19.3c.6.2 1.8.2 2.5 0 .6-.3.1-.5-1.3-.5s-1.9.2-1.2.5"/></svg>