<svg xmlns="http://www.w3.org/2000/svg" version="1.0" viewBox="0 0 436 604"><path fill-opacity=".3" d="M378.1 337.6c0 1.1.3 1.4.6.6.3-.7.2-1.6-.1-1.9-.3-.4-.6.2-.5 1.3"/><path fill-opacity=".6" d="M363 115.2c2.4 2.7 4.5 4.8 4.7 4.8.8 0 0-.9-4.4-5l-4.8-4.5zm-15.7 119.5c4.2.2 11.2.2 15.5 0 4.2-.1.7-.3-7.8-.3s-12 .2-7.7.3M31.2 258c0 1.4.2 1.9.5 1.2.2-.6.2-1.8 0-2.5-.3-.6-.5-.1-.5 1.3m375 0c0 1.4.2 1.9.5 1.2.2-.6.2-1.8 0-2.5-.3-.6-.5-.1-.5 1.3M85.3 365.7c4.3.2 11 .2 15 0 4-.1.5-.3-7.8-.3-8.2 0-11.5.2-7.2.3M406.2 399c0 1.4.2 1.9.5 1.2.2-.6.2-1.8 0-2.5-.3-.6-.5-.1-.5 1.3m-375 1c0 1.4.2 1.9.5 1.2.2-.6.2-1.8 0-2.5-.3-.6-.5-.1-.5 1.3m313.6 40.7c2.8.2 7.6.2 10.5 0 2.8-.2.5-.3-5.3-.3s-8.1.1-5.2.3M83 523.4c0 .2.8 1 1.8 1.7 1.5 1.3 1.6 1.2.3-.4s-2.1-2.1-2.1-1.3m267.9 3.3-2.4 2.8 2.8-2.4c1.5-1.4 2.7-2.6 2.7-2.8 0-.8-.8-.1-3.1 2.4M66 532.4c0 .2.8 1 1.8 1.7 1.5 1.3 1.6 1.2.3-.4s-2.1-2.1-2.1-1.3"/><path fill-opacity=".8" d="M346.5 125c1 1.1 2 2 2.3 2s-.3-.9-1.3-2-2-2-2.3-2 .3.9 1.3 2m-259.6 3.7-2.4 2.8 2.8-2.4c2.5-2.3 3.2-3.1 2.4-3.1-.2 0-1.4 1.2-2.8 2.7m266.1 2.8c1.3 1.4 2.6 2.5 2.8 2.5.3 0-.5-1.1-1.8-2.5s-2.6-2.5-2.8-2.5c-.3 0 .5 1.1 1.8 2.5M84.8 253.7c4.6.2 11.8.2 16 0 4.2-.1.5-.3-8.3-.3s-12.3.2-7.7.3m30.3 8.9c0 1.1.3 1.4.6.6.3-.7.2-1.6-.1-1.9-.3-.4-.6.2-.5 1.3m-30.3 9.1c4.6.2 11.8.2 16 0 4.2-.1.5-.3-8.3-.3s-12.3.2-7.7.3m262.5 57c4.2.2 11.2.2 15.5 0 4.2-.1.7-.3-7.8-.3s-12 .2-7.7.3m0 18c4.2.2 11.2.2 15.5 0 4.2-.1.7-.3-7.8-.3s-12 .2-7.7.3M72 538.4c0 .2.8 1 1.8 1.7 1.5 1.3 1.6 1.2.3-.4s-2.1-2.1-2.1-1.3m291.9 1.3c-1.3 1.6-1.2 1.7.4.4s2.1-2.1 1.3-2.1c-.2 0-1 .8-1.7 1.7m-150.1 42c.6.2 1.8.2 2.5 0 .6-.3.1-.5-1.3-.5s-1.9.2-1.2.5m8 0c.6.2 1.8.2 2.5 0 .6-.3.1-.5-1.3-.5s-1.9.2-1.2.5m-10 18c.6.2 1.8.2 2.5 0 .6-.3.1-.5-1.3-.5s-1.9.2-1.2.5m12 0c.6.2 1.8.2 2.5 0 .6-.3.1-.5-1.3-.5s-1.9.2-1.2.5"/><path fill-opacity=".9" d="M346 100.4c0 .2.8 1 1.8 1.7 1.5 1.3 1.6 1.2.3-.4s-2.1-2.1-2.1-1.3m7 6c0 .2.8 1 1.8 1.7 1.5 1.3 1.6 1.2.3-.4s-2.1-2.1-2.1-1.3m-271.6 2.8-1.9 2.3 2.3-1.9c1.2-1.1 2.2-2.1 2.2-2.3 0-.8-.8-.2-2.6 1.9m-13.5 13.5-2.4 2.8 2.8-2.4c2.5-2.3 3.2-3.1 2.4-3.1-.2 0-1.4 1.2-2.8 2.7m274.1-2.3c0 .2.8 1 1.8 1.7 1.5 1.3 1.6 1.2.3-.4s-2.1-2.1-2.1-1.3m-250.1 3.3-2.4 2.8 2.8-2.4c2.5-2.3 3.2-3.1 2.4-3.1-.2 0-1.4 1.2-2.8 2.7m278.1-.3c0 .2.8 1 1.8 1.7 1.5 1.3 1.6 1.2.3-.4s-2.1-2.1-2.1-1.3M81.9 133.7l-2.4 2.8 2.8-2.4c2.5-2.3 3.2-3.1 2.4-3.1-.2 0-1.4 1.2-2.8 2.7m274.1.7c0 .2.8 1 1.8 1.7 1.5 1.3 1.6 1.2.3-.4s-2.1-2.1-2.1-1.3M80.9 209.7c-1.3 1.6-1.2 1.7.4.4.9-.7 1.7-1.5 1.7-1.7 0-.8-.8-.3-2.1 1.3m-11.8 52.9c0 1.1.3 1.4.6.6.3-.7.2-1.6-.1-1.9-.3-.4-.6.2-.5 1.3m264.8 22.1c-1.3 1.6-1.2 1.7.4.4s2.1-2.1 1.3-2.1c-.2 0-1 .8-1.7 1.7m41 12c-1.3 1.6-1.2 1.7.4.4s2.1-2.1 1.3-2.1c-.2 0-1 .8-1.7 1.7M69.1 309.6c0 1.1.3 1.4.6.6.3-.7.2-1.6-.1-1.9-.3-.4-.6.2-.5 1.3m264.8 22.1c-1.3 1.6-1.2 1.7.4.4.9-.7 1.7-1.5 1.7-1.7 0-.8-.8-.3-2.1 1.3m-.9 10.7c0 .2.8 1 1.8 1.7 1.5 1.3 1.6 1.2.3-.4s-2.1-2.1-2.1-1.3M69.1 356.6c0 1.1.3 1.4.6.6.3-.7.2-1.6-.1-1.9-.3-.4-.6.2-.5 1.3M374 377.4c0 .2.8 1 1.8 1.7 1.5 1.3 1.6 1.2.3-.4s-2.1-2.1-2.1-1.3m-41 12c0 .2.8 1 1.8 1.7 1.5 1.3 1.6 1.2.3-.4s-2.1-2.1-2.1-1.3m-221.1 20.3c-1.3 1.6-1.2 1.7.4.4.9-.7 1.7-1.5 1.7-1.7 0-.8-.8-.3-2.1 1.3m256.2 21.9c0 1.1.3 1.4.6.6.3-.7.2-1.6-.1-1.9-.3-.4-.6.2-.5 1.3M76 516.4c0 .2.8 1 1.8 1.7 1.5 1.3 1.6 1.2.3-.4s-2.1-2.1-2.1-1.3m-13 12c0 .2.8 1 1.8 1.7 1.5 1.3 1.6 1.2.3-.4s-2.1-2.1-2.1-1.3m309.9 1.3c-1.3 1.6-1.2 1.7.4.4.9-.7 1.7-1.5 1.7-1.7 0-.8-.8-.3-2.1 1.3M195.5 543c1 1.1 2 2 2.3 2s-.3-.9-1.3-2-2-2-2.3-2 .3.9 1.3 2m45.9.2-1.9 2.3 2.3-1.9c2.1-1.8 2.7-2.6 1.9-2.6-.2 0-1.2 1-2.3 2.2M82 547.4c0 .2.8 1 1.8 1.7 1.5 1.3 1.6 1.2.3-.4s-2.1-2.1-2.1-1.3m271.9 1.3c-1.3 1.6-1.2 1.7.4.4s2.1-2.1 1.3-2.1c-.2 0-1 .8-1.7 1.7m-144.1 33c.6.2 1.8.2 2.5 0 .6-.3.1-.5-1.3-.5s-1.9.2-1.2.5m16 0c.6.2 1.8.2 2.5 0 .6-.3.1-.5-1.3-.5s-1.9.2-1.2.5m-9 18c1.2.2 3.2.2 4.5 0 1.2-.2.2-.4-2.3-.4s-3.5.2-2.2.4"/><g stroke-width="0"><path d="M188.3 1.1c-5.5 1.6-5.8 3-6.3 31.3l-.5 26-7.5 1.8C94.9 79.5 33.6 143.4 17.5 223.3c-4.2 21-4.7 33.6-4.2 114.7.4 82.7.4 83.1 6.8 107.8 20.5 79.5 88.8 140.2 170.8 151.6 14.6 2.1 41.7 2.1 56.2 0 44.7-6.2 85.2-26.5 117.4-58.9 29.3-29.4 48.7-65.8 56.4-105.9 3.8-19.4 4.3-33.5 3.8-112.6-.4-82.4-.4-82.8-6.6-107.4-10.6-41.4-34.2-79.7-66.4-107.2-25.7-22-53.9-36.7-85.8-44.7l-9.4-2.4-.5-25.9c-.4-18.2-.9-26.6-1.8-28.1-.7-1.2-2.9-2.7-5-3.3-4.6-1.2-56.4-1.2-60.9.1M238 37.5V57h-38V18h38zM262.4 78c39.8 10.2 75.7 33.1 101 64.3 24.1 29.9 38.7 65.1 42.5 102.6 1.5 13.9 1.5 154.9 0 167.9-2.5 23.5-8.1 42.9-18.3 63.7-45.4 92.3-155.3 130.9-248.6 87.3-51.1-23.9-89.2-70.4-102.6-125.3-5-20.4-5.4-29.1-5.4-109.3 0-45.4.4-78 1.1-84C40.9 164.1 97.2 98.4 175.3 78l11.2-2.9 32.2-.1h32.2z"/><path d="M81.6 210.1c-4.6 5.5-2.7 11.9 4.2 13.9 4.8 1.3 17.6 1.3 22.4 0 6.9-1.9 9.2-9.7 4.3-14.5-2.3-2.4-2.9-2.5-15.4-2.5H84.2zm253.3 27.8c-3.2 3.3-3.6 5.8-1.4 10 2.1 4.2 6.1 5.1 21.5 5.1s19.4-.9 21.5-5.1c2.2-4.2 1.8-6.7-1.4-10l-2.9-2.9h-34.4zM72.5 256.5c-3.4 3.3-3.4 8.7 0 12 2.4 2.5 2.7 2.5 20 2.5s17.6 0 20-2.5c3.4-3.3 3.4-8.7 0-12-2.4-2.5-2.7-2.5-20-2.5s-17.6 0-20 2.5m262.4 28.4c-3.3 3.3-3.6 5.8-1.4 10.1s7.2 5.2 24.3 4.8l14.4-.3 2.9-3.3c3.7-4.1 3.7-7.5 0-11.3l-2.9-2.9h-34.4zM75.3 301.5c-5.8 2.5-7.2 9.7-2.8 14 2.4 2.5 2.7 2.5 20 2.5s17.6 0 20-2.5c4.5-4.4 2.9-11.6-3-14.1-4.7-1.9-29.7-1.9-34.2.1m259.3 30.6c-1.4 1.7-2.6 4.1-2.6 5.4s1.2 3.7 2.6 5.4l2.6 3.1h35.6l2.6-3.1c1.4-1.7 2.6-4.1 2.6-5.4s-1.2-3.7-2.6-5.4l-2.6-3.1h-35.6zM76 347.7c-6.2 2.4-8.1 10.3-3.5 14.8 2.4 2.5 2.7 2.5 19 2.5 16.7 0 19.6-.5 22.2-3.9 2.1-2.7 1.5-7.7-1.1-10.8l-2.4-2.8-16.4-.2c-8.9-.1-17 .1-17.8.4m262.3 28.4c-3.4 1-6.3 5.1-6.3 8.9 0 1.2 1.3 3.5 2.9 5.1l2.9 2.9h34.4l2.9-2.9c3.7-3.8 3.7-7.2 0-11.3l-2.9-3.3-15.4-.2c-8.4-.1-16.8.2-18.5.8M76 394.7c-3.4 1.3-6 4.7-6 7.9 0 8.4 2.5 9.4 22.9 9.4 15.7 0 16 0 19-2.6 3.9-3.3 4.2-8 .7-12.1l-2.4-2.8-16.4-.2c-8.9-.1-17 .1-17.8.4m261.5 28.7c-3.1 1.4-5.5 5.1-5.5 8.7 0 1.1 1.3 3.4 2.9 5 2.9 2.9 3 2.9 15.4 2.9 11.8 0 12.5-.1 15.1-2.5 3.6-3.3 3.6-9.2 0-12.6-2.3-2.2-3.5-2.4-13.7-2.7-7.8-.1-12.1.2-14.2 1.2m-145.3 89.2c-4.3 1.8-5.5 4.7-4.9 11.4 1.4 15.6 15.7 28.4 31.7 28.4 15.5 0 29.9-12.4 31.7-27.4.7-6.4-.2-9.6-3.3-11.6-6.1-4.1-12.5-.5-13.8 7.6-.4 2.4-1.4 5.6-2.4 7.3-2 3.4-7.9 6.7-12.2 6.7s-10.2-3.3-12.2-6.7c-1-1.7-2-4.9-2.4-7.2-1.2-7.7-6.1-11.1-12.2-8.5"/></g><path fill-opacity=".4" d="M76.9 112.7c-1.3 1.6-1.2 1.7.4.4.9-.7 1.7-1.5 1.7-1.7 0-.8-.8-.3-2.1 1.3m254.2 130.9c0 1.1.3 1.4.6.6.3-.7.2-1.6-.1-1.9-.3-.4-.6.2-.5 1.3m0 47c0 1.1.3 1.4.6.6.3-.7.2-1.6-.1-1.9-.3-.4-.6.2-.5 1.3m0 47c0 1.1.3 1.4.6.6.3-.7.2-1.6-.1-1.9-.3-.4-.6.2-.5 1.3m0 47c0 1.1.3 1.4.6.6.3-.7.2-1.6-.1-1.9-.3-.4-.6.2-.5 1.3m0 47c0 1.1.3 1.4.6.6.3-.7.2-1.6-.1-1.9-.3-.4-.6.2-.5 1.3"/><path fill-opacity=".1" d="M344.5 124c1 1.1 2 2 2.3 2s-.3-.9-1.3-2-2-2-2.3-2 .3.9 1.3 2m-257 5.2-4 4.3 4.3-4c3.9-3.6 4.7-4.5 3.9-4.5-.2 0-2.1 1.9-4.2 4.2m265.5 3.2c0 .2.8 1 1.8 1.7 1.5 1.3 1.6 1.2.3-.4s-2.1-2.1-2.1-1.3m-5.7 121.3c4.2.2 11.2.2 15.5 0 4.2-.1.7-.3-7.8-.3s-12 .2-7.7.3m-335.1 5.8c0 1.6.2 2.2.5 1.2.2-.9.2-2.3 0-3-.3-.6-.5.1-.5 1.8m413 0c0 1.6.2 2.2.5 1.2.2-.9.2-2.3 0-3-.3-.6-.5.1-.5 1.8M85.3 346.7c4.3.2 11 .2 15 0 4-.1.5-.3-7.8-.3-8.2 0-11.5.2-7.2.3M12.2 398c0 1.4.2 1.9.5 1.2.2-.6.2-1.8 0-2.5-.3-.6-.5-.1-.5 1.3m412.9-.4c0 1.1.3 1.4.6.6.3-.7.2-1.6-.1-1.9-.3-.4-.6.2-.5 1.3m-80.3 24.1c2.8.2 7.6.2 10.5 0 2.8-.2.5-.3-5.3-.3s-8.1.1-5.2.3m20.2 1.7c0 .2.8 1 1.8 1.7 1.5 1.3 1.6 1.2.3-.4s-2.1-2.1-2.1-1.3"/><path fill-opacity=".5" d="M181.4 34c0 13.5.2 19 .3 12.2.2-6.7.2-17.7 0-24.5-.1-6.7-.3-1.2-.3 12.3m75 0c0 13.5.2 19 .3 12.2.2-6.7.2-17.7 0-24.5-.1-6.7-.3-1.2-.3 12.3m-183 82.2-1.9 2.3 2.3-1.9c1.2-1.1 2.2-2.1 2.2-2.3 0-.8-.8-.2-2.6 1.9M31.5 329c0 38.2.1 53.9.2 34.7.2-19.1.2-50.3 0-69.5-.1-19.1-.2-3.4-.2 34.8m375-.5c0 37.9.1 53.3.2 34.2.2-19.2.2-50.2 0-69-.1-18.8-.2-3.2-.2 34.8M85.2 412.7c3.7.2 10 .2 14 0 4-.1 1-.3-6.7-.3s-11 .1-7.3.3"/><path fill-opacity=".7" d="M209.8 18.7c5 .2 13.4.2 18.5 0 5-.1.9-.3-9.3-.3s-14.3.2-9.2.3m0 38c5 .2 13.4.2 18.5 0 5-.1.9-.3-9.3-.3s-14.3.2-9.2.3m-118 150c2.8.2 7.6.2 10.5 0 2.8-.2.5-.3-5.3-.3s-8.1.1-5.2.3m255.5 75c4.2.2 11.2.2 15.5 0 4.2-.1.7-.3-7.8-.3s-12 .2-7.7.3m-262 37c4.3.2 11 .2 15 0 4-.1.5-.3-7.8-.3-8.2 0-11.5.2-7.2.3m262 75c4.2.2 11.2.2 15.5 0 4.2-.1.7-.3-7.8-.3s-12 .2-7.7.3m58.8 8.9c0 1.1.3 1.4.6.6.3-.7.2-1.6-.1-1.9-.3-.4-.6.2-.5 1.3M80 520.4c0 .2.8 1 1.8 1.7 1.5 1.3 1.6 1.2.3-.4s-2.1-2.1-2.1-1.3m274.9 2.3c-1.3 1.6-1.2 1.7.4.4s2.1-2.1 1.3-2.1c-.2 0-1 .8-1.7 1.7M89 529.4c0 .2.8 1 1.8 1.7 1.5 1.3 1.6 1.2.3-.4s-2.1-2.1-2.1-1.3m257.9 1.3c-1.3 1.6-1.2 1.7.4.4s2.1-2.1 1.3-2.1c-.2 0-1 .8-1.7 1.7M69 535.4c0 .2.8 1 1.8 1.7 1.5 1.3 1.6 1.2.3-.4s-2.1-2.1-2.1-1.3m297.9 1.3c-1.3 1.6-1.2 1.7.4.4s2.1-2.1 1.3-2.1c-.2 0-1 .8-1.7 1.7M75 541.4c0 .2.8 1 1.8 1.7 1.5 1.3 1.6 1.2.3-.4s-2.1-2.1-2.1-1.3m285.9 1.3c-1.3 1.6-1.2 1.7.4.4s2.1-2.1 1.3-2.1c-.2 0-1 .8-1.7 1.7m-143.1 39c.6.2 1.8.2 2.5 0 .6-.3.1-.5-1.3-.5s-1.9.2-1.2.5m-9 18c.7.3 1.6.2 1.9-.1.4-.3-.2-.6-1.3-.5-1.1 0-1.4.3-.6.6m19 0c.7.3 1.6.2 1.9-.1.4-.3-.2-.6-1.3-.5-1.1 0-1.4.3-.6.6"/><path fill-opacity=".2" d="M200.4 37.5c0 10.4.2 14.6.3 9.2.2-5.4.2-13.9 0-19-.1-5.1-.3-.7-.3 9.8m37 0c0 10.4.2 14.6.3 9.2.2-5.4.2-13.9 0-19-.1-5.1-.3-.7-.3 9.8M92.9 123.7c-1.3 1.6-1.2 1.7.4.4.9-.7 1.7-1.5 1.7-1.7 0-.8-.8-.3-2.1 1.3M12.5 329c0 37.1.1 52.3.2 33.8.2-18.6.2-49 0-67.5-.1-18.6-.2-3.4-.2 33.7m413 0c0 37.1.1 52.3.2 33.8.2-18.6.2-49 0-67.5-.1-18.6-.2-3.4-.2 33.7M84.3 393.7c4.2.2 11.2.2 15.5 0 4.2-.1.7-.3-7.8-.3s-12 .2-7.7.3M194 542.4c0 .2.8 1 1.8 1.7 1.5 1.3 1.6 1.2.3-.4s-2.1-2.1-2.1-1.3"/></svg>