<svg xmlns="http://www.w3.org/2000/svg" version="1.0" viewBox="0 0 458 474"><path fill-opacity=".2" d="M258 386.4c0 .2.8 1 1.8 1.7 1.5 1.3 1.6 1.2.3-.4s-2.1-2.1-2.1-1.3m128.3 45.3c.9.2 2.3.2 3 0 .6-.3-.1-.5-1.8-.5-1.6 0-2.2.2-1.2.5"/><path fill-opacity=".3" d="M259.9 83.7c-1.3 1.6-1.2 1.7.4.4s2.1-2.1 1.3-2.1c-.2 0-1 .8-1.7 1.7M233.5 413c1 1.1 2 2 2.3 2s-.3-.9-1.3-2-2-2-2.3-2 .3.9 1.3 2"/><path fill-opacity=".4" d="M435.5 24c1 1.1 2 2 2.3 2s-.3-.9-1.3-2-2-2-2.3-2 .3.9 1.3 2"/><path fill-opacity=".5" d="m434.4 449.2-1.9 2.3 2.3-1.9c1.2-1.1 2.2-2.1 2.2-2.3 0-.8-.8-.2-2.6 1.9"/><path fill-opacity=".7" d="m138.5 151.2-14 14.3 14.3-14c13.2-13 14.7-14.5 13.9-14.5-.1 0-6.5 6.4-14.2 14.2m76.6 219.4c0 1.1.3 1.4.6.6.3-.7.2-1.6-.1-1.9-.3-.4-.6.2-.5 1.3"/><path fill-opacity=".1" d="m82.5 156.2-11 11.3 11.3-11c6.1-6 11.2-11.1 11.2-11.2 0-.8-1.3.5-11.5 10.9m0 52-6 6.3 6.3-6c3.4-3.3 6.2-6.1 6.2-6.2 0-.8-1 .1-6.5 5.9m31.5 87.3c21.2 21.2 38.7 38.5 39 38.5s-16.8-17.3-38-38.5S76.3 257 76 257s16.8 17.3 38 38.5M74.5 308c8.8 8.8 16.2 16 16.5 16s-6.7-7.2-15.5-16-16.2-16-16.5-16 6.7 7.2 15.5 16"/><path fill-opacity=".8" d="m71 168.7-55.5 55.8L71.3 169c51.8-51.6 56.1-56 55.4-56-.1 0-25.2 25.1-55.7 55.7m27 23-26.5 26.8L98.3 192c24.8-24.6 27.2-27 26.4-27-.1 0-12.1 12-26.7 26.7M71 303.5c30.5 30.5 55.7 55.5 56 55.5s-24.5-25-55-55.5S16.3 248 16 248s24.5 25 55 55.5M89.5 272c9.9 9.9 18.2 18 18.5 18s-7.6-8.1-17.5-18-18.2-18-18.5-18 7.6 8.1 17.5 18m125.6 95.6c0 1.1.3 1.4.6.6.3-.7.2-1.6-.1-1.9-.3-.4-.6.2-.5 1.3m239 38c0 1.1.3 1.4.6.6.3-.7.2-1.6-.1-1.9-.3-.4-.6.2-.5 1.3"/><g stroke-width="0"><path d="M377 5.6c-1.4.3-10.6 3.2-20.5 6.4s-36.4 11.8-59 19c-24.7 7.9-43.8 14.6-47.9 16.8-8.3 4.4-19.6 15.3-24.4 23.4-7.9 13.4-10.2 25.5-10.2 55 0 19.8 1 26.5 4.7 30.9 6.7 7.9 19 8.3 26 .7 4.3-4.5 4.7-7.2 5.3-35.3.6-30.2.8-31.1 8.6-38.9 5-5 6.2-5.6 29.5-13.1 11.2-3.7 28.5-9.3 38.4-12.5 58.6-19.1 60.6-19.6 70.8-16.6 6.4 1.9 14.6 8.7 18 15l2.2 4.1.3 174.4.2 174.4-2.4 5.1c-4.9 10.5-14.2 16.8-25.8 17.4-3.6.2-8.1-.1-10-.6-1.8-.6-17.2-5.6-34.3-11.1-17-5.5-41.1-13.2-53.5-17.2-12.4-3.9-23.8-7.8-25.5-8.7-6-3-10.4-7.4-13.2-13l-2.8-5.7-.5-27c-.5-28.3-.7-29.2-5.4-34.3-3.2-3.7-7.4-5.4-12.7-5.4-5.9.1-10 2.1-13.6 6.9l-2.8 3.6-.3 28.3c-.2 23.4 0 29.4 1.3 34.6 4.8 18.5 17.9 34.7 35.2 43.3 3.8 1.8 23.7 8.7 44.3 15.3s45.4 14.6 55 17.7c24.6 8.1 27.7 8.8 40 8.3 29-1.2 52.7-20.6 60.7-49.8 1.7-6.1 1.8-16.6 1.8-181 0-163.4-.1-174.9-1.8-181-6.1-22.7-22.1-39.5-45.2-47.5-5-1.7-25.1-2.9-30.5-1.9"/><path d="M133 109.5c-4.6 2.1-117.7 114.8-119.6 119.2-1.8 4.1-1.8 10.5 0 14.6.8 1.8 25.9 27.6 59.2 60.8 45.8 45.6 58.7 57.9 61.7 58.9 11.9 3.8 24.1-7 22.2-19.7-.7-4.7-1.3-5.4-42.8-47L71.6 254l122.9-.2 123-.3 4.3-2.4c4.7-2.7 9.2-10.3 9.2-15.4 0-4.8-4.6-12.1-9.3-14.8l-4.2-2.4-123-.3-122.9-.2 41.6-41.8c44.1-44.3 44.7-45 43.5-52.9-1.8-10.7-14.3-18-23.7-13.8"/></g><path fill-opacity=".9" d="M431 20.4c0 .2.8 1 1.8 1.7 1.5 1.3 1.6 1.2.3-.4s-2.1-2.1-2.1-1.3M129.5 312c12.1 12.1 22.2 22 22.5 22s-9.4-9.9-21.5-22-22.2-22-22.5-22 9.4 9.9 21.5 22m85.9 34c0 11.3.2 15.9.3 10.2.2-5.6.2-14.8 0-20.5-.1-5.6-.3-1-.3 10.3m43.1 42c1 1.1 2 2 2.3 2s-.3-.9-1.3-2-2-2-2.3-2 .3.9 1.3 2M233 411.5c1.3 1.4 2.6 2.5 2.8 2.5.3 0-.5-1.1-1.8-2.5s-2.6-2.5-2.8-2.5c-.3 0 .5 1.1 1.8 2.5m205.9 32.2c-1.3 1.6-1.2 1.7.4.4.9-.7 1.7-1.5 1.7-1.7 0-.8-.8-.3-2.1 1.3"/></svg>