<svg xmlns="http://www.w3.org/2000/svg" version="1.0" viewBox="0 0 457 460"><path fill-opacity=".2" d="M132.8 101.7c.7.3 1.6.2 1.9-.1.4-.3-.2-.6-1.3-.5-1.1 0-1.4.3-.6.6m116.6 133.8c0 5.5.1 7.6.3 4.7s.2-7.4 0-10-.3-.2-.3 5.3m-.2 18.5c0 1.4.2 1.9.5 1.2.2-.6.2-1.8 0-2.5-.3-.6-.5-.1-.5 1.3m-73.4 35.7c13.3.2 35.1.2 48.5 0 13.3-.1 2.4-.2-24.3-.2s-37.6.1-24.2.2M115.5 355c2.7 2.7 5.1 5 5.4 5s-1.7-2.3-4.4-5c-2.7-2.8-5.1-5-5.4-5s1.7 2.2 4.4 5"/><path fill-opacity=".3" d="M416 38.3c0 .2 1.5 1.6 3.3 3.3l3.2 2.9-2.9-3.3c-2.8-3-3.6-3.7-3.6-2.9m-25 28.1c0 .2.8 1 1.8 1.7 1.5 1.3 1.6 1.2.3-.4s-2.1-2.1-2.1-1.3M63.5 163.2l-57 57.3 57.3-57c31.4-31.3 57.2-57.1 57.2-57.2 0-.7-4.5 3.7-57.5 56.9m112.3 13.5c13.4.2 35 .2 48 0 13-.1 2.1-.2-24.3-.2s-37.1.1-23.7.2m73.4 47.3c0 1.4.2 1.9.5 1.2.2-.6.2-1.8 0-2.5-.3-.6-.5-.1-.5 1.3M58 297.5c28.9 28.9 52.7 52.5 53 52.5s-23.1-23.6-52-52.5S6.3 245 6 245s23.1 23.6 52 52.5m191.3-49c0 2.2.2 3 .4 1.7.2-1.2.2-3 0-4-.3-.9-.5.1-.4 2.3m142.6 150.2c-1.3 1.6-1.2 1.7.4.4.9-.7 1.7-1.5 1.7-1.7 0-.8-.8-.3-2.1 1.3m26.5 26.5-1.9 2.3 2.3-1.9c1.2-1.1 2.2-2.1 2.2-2.3 0-.8-.8-.2-2.6 1.9"/><path fill-opacity=".5" d="M282.2 45.7c10.8.2 28.8.2 40 0 11.2-.1 2.3-.2-19.7-.2s-31.1.1-20.3.2M414.5 233c0 63 .1 88.7.2 57.3.2-31.5.2-83.1 0-114.5-.1-31.5-.2-5.8-.2 57.2m-166.4-27.4c0 1.1.3 1.4.6.6.3-.7.2-1.6-.1-1.9-.3-.4-.6.2-.5 1.3m0 10c0 1.1.3 1.4.6.6.3-.7.2-1.6-.1-1.9-.3-.4-.6.2-.5 1.3m1 56c0 1.1.3 1.4.6.6.3-.7.2-1.6-.1-1.9-.3-.4-.6.2-.5 1.3m33.7 149.1c11.1.2 29.3.2 40.5 0 11.1-.1 2-.2-20.3-.2s-31.4.1-20.2.2"/><path fill-opacity=".6" d="M145 106.4c0 .2.8 1 1.8 1.7 1.5 1.3 1.6 1.2.3-.4s-2.1-2.1-2.1-1.3m269.1 11.2c0 1.1.3 1.4.6.6.3-.7.2-1.6-.1-1.9-.3-.4-.6.2-.5 1.3M248.2 260.5c0 1.6.2 2.2.5 1.2.2-.9.2-2.3 0-3-.3-.6-.5.1-.5 1.8m.9 8.1c0 1.1.3 1.4.6.6.3-.7.2-1.6-.1-1.9-.3-.4-.6.2-.5 1.3m165 80c0 1.1.3 1.4.6.6.3-.7.2-1.6-.1-1.9-.3-.4-.6.2-.5 1.3"/><path fill-opacity=".7" d="M208.4 82c0 11.8.2 16.7.3 10.7.2-5.9.2-15.5 0-21.5-.1-5.9-.3-1-.3 10.8m37 1c0 11.3.2 15.9.3 10.2.2-5.6.2-14.8 0-20.5-.1-5.6-.3-1-.3 10.3m2.9 112c0 4.1.2 5.8.4 3.7.2-2 .2-5.4 0-7.5-.2-2-.4-.3-.4 3.8m-.2 61.6c0 1.1.3 1.4.6.6.3-.7.2-1.6-.1-1.9-.3-.4-.6.2-.5 1.3m-39.7 126.9c0 12.1.2 16.9.3 10.7.2-6.2.2-16.1 0-22-.1-5.9-.3-.8-.3 11.3m37-.5c0 11.3.2 15.9.3 10.2.2-5.6.2-14.8 0-20.5-.1-5.6-.3-1-.3 10.3"/><path fill-opacity=".8" d="M342.8 8.7c.6.2 1.8.2 2.5 0 .6-.3.1-.5-1.3-.5s-1.9.2-1.2.5m108.3 107.9c0 1.1.3 1.4.6.6.3-.7.2-1.6-.1-1.9-.3-.4-.6.2-.5 1.3M247.2 180c0 1.9.2 2.7.5 1.7.2-.9.2-2.5 0-3.5-.3-.9-.5-.1-.5 1.8m.1 31c0 3 .2 4.3.4 2.7.2-1.5.2-3.9 0-5.5-.2-1.5-.4-.2-.4 2.8m1.1 29c0 8.5.2 12 .3 7.7.2-4.2.2-11.2 0-15.5-.1-4.2-.3-.7-.3 7.8m0 40c0 5.2.1 7.4.3 4.7.2-2.6.2-6.8 0-9.5-.2-2.6-.3-.4-.3 4.8m202.7 69.6c0 1.1.3 1.4.6.6.3-.7.2-1.6-.1-1.9-.3-.4-.6.2-.5 1.3"/><path fill-opacity=".9" d="M281.8 8.7c11.1.2 29.3.2 40.5 0 11.1-.1 2-.2-20.3-.2s-31.4.1-20.2.2m-57.4 16.5-1.9 2.3 2.3-1.9c2.1-1.8 2.7-2.6 1.9-2.6-.2 0-1.2 1-2.3 2.2m193.6 16c4.1 4.5 5 5.3 5 4.5 0-.2-2.1-2.3-4.7-4.7l-4.8-4.5zM392.5 67c1 1.1 2 2 2.3 2s-.3-.9-1.3-2-2-2-2.3-2 .3.9 1.3 2m-329 97.2-58 58.3 58.3-58c32-31.9 58.2-58.1 58.2-58.2 0-.7-4.6 3.8-58.5 57.9m388 68.8c0 63.5.1 89.5.2 57.8.2-31.8.2-83.8 0-115.5-.1-31.8-.2-5.8-.2 57.7m-300.1-85c0 16.2.2 22.9.3 14.7.2-8.1.2-21.3 0-29.5-.1-8.1-.3-1.4-.3 14.8m95.4 73.1c.1 24.4.2 49.8.2 56.4-.1 6.6.2 11.7.5 11.3.4-.3.5-16.7.4-36.4-.1-19.8-.2-43.1-.1-51.9s-.1-17.8-.6-19.9c-.4-2.1-.6 16.1-.4 40.5M63.5 302c31.9 31.9 58.2 58 58.5 58s-25.6-26.1-57.5-58S6.3 244 6 244s25.6 26.1 57.5 58m87.9 16c0 16.2.2 22.9.3 14.7.2-8.1.2-21.3 0-29.5-.1-8.1-.3-1.4-.3 14.8M418 424.5c-2.4 2.5-4.2 4.5-3.9 4.5s2.5-2 4.9-4.5 4.2-4.5 3.9-4.5-2.5 2-4.9 4.5m-156.2 33.2c.7.3 1.6.2 1.9-.1.4-.3-.2-.6-1.3-.5-1.1 0-1.4.3-.6.6m79 0c.6.2 1.8.2 2.5 0 .6-.3.1-.5-1.3-.5s-1.9.2-1.2.5"/><path fill-opacity=".4" d="M248.3 180.5c0 2.2.2 3 .4 1.7.2-1.2.2-3 0-4-.3-.9-.5.1-.4 2.3m0 30c0 2.2.2 3 .4 1.7.2-1.2.2-3 0-4-.3-.9-.5.1-.4 2.3m1 70.5c0 4.7.2 6.6.4 4.2.2-2.3.2-6.1 0-8.5-.2-2.3-.4-.4-.4 4.3"/><path fill-opacity=".1" d="m223.9 24.7-2.4 2.8 2.8-2.4c2.5-2.3 3.2-3.1 2.4-3.1-.2 0-1.4 1.2-2.8 2.7M372 183.9c0 .6.4 1.3 1 1.6s.7-.1.4-.9c-.7-1.8-1.4-2.1-1.4-.7m-122.6 11.6c0 4.9.1 7.1.3 4.8s.2-6.4 0-9-.3-.8-.3 4.2m-.3 23.1c0 1.1.3 1.4.6.6.3-.7.2-1.6-.1-1.9-.3-.4-.6.2-.5 1.3m.2 40.9c0 2.2.2 3 .4 1.7.2-1.2.2-3 0-4-.3-.9-.5.1-.4 2.3M131.8 364.7c.6.2 1.8.2 2.5 0 .6-.3.1-.5-1.3-.5s-1.9.2-1.2.5m92.2 76.8c1.3 1.4 2.6 2.5 2.8 2.5.3 0-.5-1.1-1.8-2.5s-2.6-2.5-2.8-2.5c-.3 0 .5 1.1 1.8 2.5"/><g stroke-width="0"><path d="M250.1 10.6c-13.3 3.6-28.4 15.7-34.8 27.9-5.6 10.7-6.3 15.6-6.3 42.9 0 28.1.5 30.3 8 35.2 8.7 5.8 19.5 3.4 25.1-5.4l2.9-4.6v-22c0-12.3.5-23.8 1.1-25.9 1.4-5.1 6.1-10.2 11.3-12.2 3.7-1.4 9.5-1.6 50.2-1.2 39.2.3 46.7.6 51.5 2 26.9 8 46 27.3 53.6 53.9 1.7 5.9 1.8 14 1.8 132.3v126l-3.3 9.5c-8.6 24.8-26.9 42.2-52.1 49.7-4.8 1.4-12.3 1.7-51.5 2-40.7.4-46.5.2-50.2-1.2-5.2-2-9.9-7.1-11.3-12.2-.6-2.1-1.1-13.6-1.1-25.8 0-20.9-.1-22.2-2.3-26-7.1-12.5-24.3-12.5-31.4 0-2.2 3.9-2.3 4.9-2.3 29 0 18.7.4 26.4 1.5 30.5 5 19 19.7 34.2 39 40.3 6.8 2.1 8.2 2.2 53.5 2.2 35 0 48.4-.3 54-1.4 24.3-4.4 45.2-15.4 62.1-32.8 16.1-16.5 26.3-35.7 30.3-57.3 2.4-12.2 2.4-253.6.1-265.7-4.2-22-14.1-40.9-30.4-57.6-16.4-16.9-36.7-27.9-59.4-32.2-11.3-2.2-101.5-2.1-109.6.1"/><path d="M126.5 103.9c-2.6 1.2-24.1 22-63.2 61.2C-1.8 230.4.5 227.7 3 237.2c1 3.8 7.8 10.9 61.3 64.5 54.8 54.7 60.6 60.3 64.7 61.3 7.8 2.1 16.3-1.8 20-9 1.9-3.7 2-6 2-34.5V289h96l.2-10.3c0-5.6 0-10.9-.1-11.7s-.1-18.8-.2-40c0-21.2-.2-41.1-.5-44.3l-.6-5.7H151v-30.5c0-28.7-.1-30.8-2-34.5-4.1-8.1-14.7-11.9-22.5-8.1"/></g></svg>