<svg xmlns="http://www.w3.org/2000/svg" version="1.0" viewBox="0 0 487 422"><path fill-opacity=".2" d="M24.2 62c0 1.4.2 1.9.5 1.2.2-.6.2-1.8 0-2.5-.3-.6-.5-.1-.5 1.3m439.2 26c0 15.7.2 22.1.3 14.2.2-7.8.2-20.6 0-28.5-.1-7.8-.3-1.4-.3 14.3M24.5 234.5c0 70.4.1 99.1.2 63.7.2-35.4.2-93 0-128-.1-35-.2-6.1-.2 64.3m438.9-54c0 11.5.2 16.1.3 10.2.2-5.9.2-15.4 0-21-.1-5.6-.3-.8-.3 10.8m.1 80.5c0 21.7.1 30.6.2 19.7.2-10.8.2-28.6 0-39.5-.1-10.8-.2-1.9-.2 19.8M312 239.4c0 .2.8 1 1.8 1.7 1.5 1.3 1.6 1.2.3-.4s-2.1-2.1-2.1-1.3m-57.9 23.2c0 1.1.3 1.4.6.6.3-.7.2-1.6-.1-1.9-.3-.4-.6.2-.5 1.3m37.7 27.1c.6.2 1.8.2 2.5 0 .6-.3.1-.5-1.3-.5s-1.9.2-1.2.5"/><path fill-opacity=".3" d="M154.8 101.7c50.3.2 132.2.2 182 0 49.9-.1 8.8-.2-91.3-.2s-140.9.1-90.7.2m179 219c23.7.2 62.7.2 86.5 0 23.7-.1 4.3-.2-43.3-.2s-67 .1-43.2.2"/><path fill-opacity=".4" d="M451 33.4c0 .2.8 1 1.8 1.7 1.5 1.3 1.6 1.2.3-.4s-2.1-2.1-2.1-1.3M292.8 252.7c.7.3 1.6.2 1.9-.1.4-.3-.2-.6-1.3-.5-1.1 0-1.4.3-.6.6m-28.6 8.3c0 1.4.2 1.9.5 1.2.2-.6.2-1.8 0-2.5-.3-.6-.5-.1-.5 1.3"/><path fill-opacity=".5" d="M152.8 22.7c50.1.2 132.3.2 182.5 0 50.1-.1 9.1-.2-91.3-.2s-141.4.1-91.2.2m98.1 196c-1.3 1.6-1.2 1.7.4.4.9-.7 1.7-1.5 1.7-1.7 0-.8-.8-.3-2.1 1.3M34 386.4c0 .2.8 1 1.8 1.7 1.5 1.3 1.6 1.2.3-.4s-2.1-2.1-2.1-1.3"/><path fill-opacity=".6" d="M152.2 2.7c50.5.2 133.1.2 183.6 0 50.4-.1 9.1-.2-91.8-.2s-142.2.1-91.8.2m148.9 257.9c0 1.1.3 1.4.6.6.3-.7.2-1.6-.1-1.9-.3-.4-.6.2-.5 1.3M264 287.4c0 .2.8 1 1.8 1.7 1.5 1.3 1.6 1.2.3-.4s-2.1-2.1-2.1-1.3M152.2 399.7c50.5.2 133.1.2 183.6 0 50.4-.1 9.1-.2-91.8-.2s-142.2.1-91.8.2m0 20c50.5.2 133.1.2 183.6 0 50.4-.1 9.1-.2-91.8-.2s-142.2.1-91.8.2"/><path fill-opacity=".1" d="M18.9 21.7c-1.3 1.6-1.2 1.7.4.4.9-.7 1.7-1.5 1.7-1.7 0-.8-.8-.3-2.1 1.3m128.4 51c49.3.2 130.1.2 179.5 0 49.3-.1 8.9-.2-89.8-.2s-139.1.1-89.7.2m188 149c23.5.2 61.9.2 85.5 0 23.5-.1 4.2-.2-42.8-.2s-66.3.1-42.7.2m-63.4 19c-1.3 1.6-1.2 1.7.4.4s2.1-2.1 1.3-2.1c-.2 0-1 .8-1.7 1.7M463.4 341c0 11.3.2 15.9.3 10.2.2-5.6.2-14.8 0-20.5-.1-5.6-.3-1-.3 10.3m2.5 61.7-2.4 2.8 2.8-2.4c1.5-1.4 2.7-2.6 2.7-2.8 0-.8-.8-.1-3.1 2.4"/><path fill-opacity=".7" d="M152.3 121.7c50.5.2 132.9.2 183 0 50.2-.1 8.9-.2-91.8-.2s-141.7.1-91.2.2M451.5 133c1 1.1 2 2 2.3 2s-.3-.9-1.3-2-2-2-2.3-2 .3.9 1.3 2M335.3 300.7c23.5.2 61.9.2 85.5 0 23.5-.1 4.2-.2-42.8-.2s-66.3.1-42.7.2m-83.8 2.3c1 1.1 2 2 2.3 2s-.3-.9-1.3-2-2-2-2.3-2 .3.9 1.3 2"/><path fill-opacity=".9" d="m21.4 20.2-1.9 2.3 2.3-1.9c2.1-1.8 2.7-2.6 1.9-2.6-.2 0-1.2 1-2.3 2.2m444.1-.2c1 1.1 2 2 2.3 2s-.3-.9-1.3-2-2-2-2.3-2 .3.9 1.3 2M4.1 60.6c0 1.1.3 1.4.6.6.3-.7.2-1.6-.1-1.9-.3-.4-.6.2-.5 1.3m479.4 49.9c0 28.6.1 40.2.2 25.7.2-14.5.2-37.9 0-52-.1-14.1-.2-2.3-.2 26.3m-59.4-47.9c0 1.1.3 1.4.6.6.3-.7.2-1.6-.1-1.9-.3-.4-.6.2-.5 1.3M264.9 232.7l-3.4 3.8 3.8-3.4c2-1.9 3.7-3.6 3.7-3.8 0-.8-.8 0-4.1 3.4m47.6 8.3c1 1.1 2 2 2.3 2s-.3-.9-1.3-2-2-2-2.3-2 .3.9 1.3 2m-78.3 19.5c0 1.6.2 2.2.5 1.2.2-.9.2-2.3 0-3-.3-.6-.5.1-.5 1.8m50.8 4.9c0 .2.8 1 1.8 1.7 1.5 1.3 1.6 1.2.3-.4s-2.1-2.1-2.1-1.3M4.1 361.6c0 1.1.3 1.4.6.6.3-.7.2-1.6-.1-1.9-.3-.4-.6.2-.5 1.3m479 0c0 1.1.3 1.4.6.6.3-.7.2-1.6-.1-1.9-.3-.4-.6.2-.5 1.3M21.5 402c1 1.1 2 2 2.3 2s-.3-.9-1.3-2-2-2-2.3-2 .3.9 1.3 2m444.4-.3c-1.3 1.6-1.2 1.7.4.4s2.1-2.1 1.3-2.1c-.2 0-1 .8-1.7 1.7"/><g stroke-width="0"><path d="M50 4.6C28.7 10.2 12.2 26.5 6.3 48.1c-1.7 6-1.8 16.1-1.8 163.9v157.5l2.7 8c5.4 15.8 16.5 28.4 31.1 35.4 4.5 2.2 10.6 4.4 13.5 5 3.7.8 61.2 1.1 192.5 1.1 207.7 0 193.4.4 207-6.7 13.7-7.2 23.6-18.9 29.1-34.3l3.1-8.5-.2-158.6-.3-158.7-2.5-7.8c-6.1-19.3-23.2-35.3-42.6-39.9-9.4-2.2-379.4-2.1-387.9.1m389.3 20.2c8.1 3.3 16.8 11.6 20.9 20l3.3 6.7.3 32.7c.2 18.1 0 32.8-.4 32.8-.3 0-2.3-1.3-4.3-2.9-4.2-3.3-10.2-6.5-18.1-9.5l-5.5-2.1-191-.5-191-.5-6.6-3.2C38.4 94.1 31.5 87.2 27.6 79c-2.9-6-3.1-7.3-3.1-17 0-9.3.3-11.2 2.7-16.2 3.1-6.8 10.3-14.7 16.3-18.3 9.8-5.7-1.1-5.4 202.5-5.2l187.5.2zM39.1 115.5c12.9 5.8.6 5.5 202.6 5.5 133.3 0 186.7.3 190.5 1.1 12.1 2.6 22.7 10.8 28.1 21.8l3.2 6.6.3 25.2.4 25.2-89.9.3c-81.9.3-90.3.5-95.7 2.1-20.4 6-37 22.6-42.1 42.3-2 7.6-1.9 22 .1 29.8 4.8 18.7 19.4 34.4 38.4 41.4l7.5 2.7 90.8.3 90.8.3-.3 25.2-.3 25.3-3.3 6.6c-4.1 8.4-12.8 16.7-20.9 20l-5.8 2.3h-379l-5.8-2.3c-8.1-3.3-16.8-11.6-20.9-20l-3.3-6.7-.3-132.3-.2-132.4 4.9 3.6c2.7 2 7.3 4.7 10.2 6.1M464 261v40h-86.5c-59.4 0-88.1-.3-91.7-1.1-12.1-2.5-23.4-11.5-28.6-22.7-2.4-5.1-2.7-6.9-2.7-16.7 0-9.9.3-11.5 2.7-16.5 5.2-10.4 12.7-17.3 23.1-21.1 4.9-1.7 10-1.8 94.5-1.9H464z"/><path d="M57.3 52.7c-1.2.2-3.3 1.6-4.7 3-4.7 4.7-2.8 13 3.6 15.2 2.2.8 56.7 1.1 181 1.1 190.9 0 183 .2 185.7-4.8 1.6-3 1.3-8.4-.4-10.9-.9-1.2-3.2-2.7-5.3-3.3-3.6-1-354.8-1.3-359.9-.3m226.4 181.7c-10.8 3.9-18.7 15.2-18.7 26.7 0 5.9 3.6 14.3 8.1 18.9 13.2 13.6 34.9 10.7 44.1-5.7 10.3-18.3-3-41.4-23.7-41.2-3.3 0-7.7.6-9.8 1.3m14.4 18.9c4.2 3.2 5 9 1.9 12.9-5.2 6.7-16 2.4-16-6.3 0-1.1 1.3-3.4 2.9-5 3.2-3.1 8.2-3.9 11.2-1.6"/></g></svg>