<svg xmlns="http://www.w3.org/2000/svg" version="1.0" viewBox="0 0 379 436"><path fill-opacity=".2" d="M169 183.5c1.3 1.4 2.6 2.5 2.8 2.5.3 0-.5-1.1-1.8-2.5s-2.6-2.5-2.8-2.5c-.3 0 .5 1.1 1.8 2.5m-71.1 18.2-2.4 2.8 2.8-2.4c2.5-2.3 3.2-3.1 2.4-3.1-.2 0-1.4 1.2-2.8 2.7m10.5 14.5-1.9 2.3 2.3-1.9c2.1-1.8 2.7-2.6 1.9-2.6-.2 0-1.2 1-2.3 2.2m-39.3 4.4c0 1.1.3 1.4.6.6.3-.7.2-1.6-.1-1.9-.3-.4-.6.2-.5 1.3m261.1 8.9c0 1.6.2 2.2.5 1.2.2-.9.2-2.3 0-3-.3-.6-.5.1-.5 1.8m32.1 28.5c0 2.5.2 3.5.4 2.2.2-1.2.2-3.2 0-4.5-.2-1.2-.4-.2-.4 2.3m-32.2 3.6c0 1.1.3 1.4.6.6.3-.7.2-1.6-.1-1.9-.3-.4-.6.2-.5 1.3m32.2 8.9c0 2.7.2 3.8.4 2.2.2-1.5.2-3.7 0-5-.2-1.2-.4 0-.4 2.8M114 326.4c0 .2.8 1 1.8 1.7 1.5 1.3 1.6 1.2.3-.4s-2.1-2.1-2.1-1.3"/><path fill-opacity=".4" d="M103.8 90.7c.7.3 1.6.2 1.9-.1.4-.3-.2-.6-1.3-.5-1.1 0-1.4.3-.6.6M93.2 202.5c0 1.6.2 2.2.5 1.2.2-.9.2-2.3 0-3-.3-.6-.5.1-.5 1.8m236.9 64.1c0 1.1.3 1.4.6.6.3-.7.2-1.6-.1-1.9-.3-.4-.6.2-.5 1.3"/><path fill-opacity=".5" d="M110.8 106.7c1.2.2 3.2.2 4.5 0 1.2-.2.2-.4-2.3-.4s-3.5.2-2.2.4m250.3 124.9c0 1.1.3 1.4.6.6.3-.7.2-1.6-.1-1.9-.3-.4-.6.2-.5 1.3m-31 38c0 1.1.3 1.4.6.6.3-.7.2-1.6-.1-1.9-.3-.4-.6.2-.5 1.3m-108 81c0 1.1.3 1.4.6.6.3-.7.2-1.6-.1-1.9-.3-.4-.6.2-.5 1.3m77.3 37.6-1.9 2.3 2.3-1.9c1.2-1.1 2.2-2.1 2.2-2.3 0-.8-.8-.2-2.6 1.9m23.5 20.5c-1.3 1.6-1.2 1.7.4.4s2.1-2.1 1.3-2.1c-.2 0-1 .8-1.7 1.7"/><path fill-opacity=".6" d="m233.4 58.2-1.9 2.3 2.3-1.9c2.1-1.8 2.7-2.6 1.9-2.6-.2 0-1.2 1-2.3 2.2M108.8 90.7c.7.3 1.6.2 1.9-.1.4-.3-.2-.6-1.3-.5-1.1 0-1.4.3-.6.6m-2 16c.7.3 1.6.2 1.9-.1.4-.3-.2-.6-1.3-.5-1.1 0-1.4.3-.6.6m83.2 17.7c0 .2.8 1 1.8 1.7 1.5 1.3 1.6 1.2.3-.4s-2.1-2.1-2.1-1.3m-71.1 80.3c-1.3 1.6-1.2 1.7.4.4s2.1-2.1 1.3-2.1c-.2 0-1 .8-1.7 1.7m-20 21c-1.3 1.6-1.2 1.7.4.4s2.1-2.1 1.3-2.1c-.2 0-1 .8-1.7 1.7m231.2 46.9c0 1.1.3 1.4.6.6.3-.7.2-1.6-.1-1.9-.3-.4-.6.2-.5 1.3"/><path fill-opacity=".7" d="m115.4 208.2-1.9 2.3 2.3-1.9c2.1-1.8 2.7-2.6 1.9-2.6-.2 0-1.2 1-2.3 2.2m-75.3 24.4c0 1.1.3 1.4.6.6.3-.7.2-1.6-.1-1.9-.3-.4-.6.2-.5 1.3m321 4c0 1.1.3 1.4.6.6.3-.7.2-1.6-.1-1.9-.3-.4-.6.2-.5 1.3M95 348.5c3 3 5.7 5.5 5.9 5.5.3 0-1.9-2.5-4.9-5.5s-5.7-5.5-5.9-5.5c-.3 0 1.9 2.5 4.9 5.5"/><path fill-opacity=".3" d="M99.3 90.7c.9.2 2.3.2 3 0 .6-.3-.1-.5-1.8-.5-1.6 0-2.2.2-1.2.5M313 99.3c0 .2 1.5 1.6 3.3 3.3l3.2 2.9-2.9-3.3c-2.8-3-3.6-3.7-3.6-2.9m-210.1 97.4-2.4 2.8 2.8-2.4c2.5-2.3 3.2-3.1 2.4-3.1-.2 0-1.4 1.2-2.8 2.7m1.5 23.5-1.9 2.3 2.3-1.9c1.2-1.1 2.2-2.1 2.2-2.3 0-.8-.8-.2-2.6 1.9M362.2 264c0 1.4.2 1.9.5 1.2.2-.6.2-1.8 0-2.5-.3-.6-.5-.1-.5 1.3m-243.7 67c1 1.1 2 2 2.3 2s-.3-.9-1.3-2-2-2-2.3-2 .3.9 1.3 2"/><path fill-opacity=".1" d="M41 116.5c-2.4 2.5-4.2 4.5-3.9 4.5s2.5-2 4.9-4.5 4.2-4.5 3.9-4.5-2.5 2-4.9 4.5m83.9 15.2c-1.3 1.6-1.2 1.7.4.4.9-.7 1.7-1.5 1.7-1.7 0-.8-.8-.3-2.1 1.3m56.1 36.8c1.3 1.4 2.6 2.5 2.8 2.5.3 0-.5-1.1-1.8-2.5s-2.6-2.5-2.8-2.5c-.3 0 .5 1.1 1.8 2.5m-69.1 44.2c-1.3 1.6-1.2 1.7.4.4.9-.7 1.7-1.5 1.7-1.7 0-.8-.8-.3-2.1 1.3m218.4 22.8c0 2.2.2 3 .4 1.7.2-1.2.2-3 0-4-.3-.9-.5.1-.4 2.3m31.9 15.5c0 1.9.2 2.7.5 1.7.2-.9.2-2.5 0-3.5-.3-.9-.5-.1-.5 1.8m-32 6c0 1.9.2 2.7.5 1.7.2-.9.2-2.5 0-3.5-.3-.9-.5-.1-.5 1.8m31.9 19.6c0 1.1.3 1.4.6.6.3-.7.2-1.6-.1-1.9-.3-.4-.6.2-.5 1.3"/><path fill-opacity=".9" d="M318 105.4c0 .2.8 1 1.8 1.7 1.5 1.3 1.6 1.2.3-.4s-2.1-2.1-2.1-1.3M41.5 117.2l-4 4.3 4.3-4c2.3-2.1 4.2-4 4.2-4.2 0-.8-.9 0-4.5 3.9m84.4 12.5-2.4 2.8 2.8-2.4c2.5-2.3 3.2-3.1 2.4-3.1-.2 0-1.4 1.2-2.8 2.7m54.6 39.3c2.1 2.2 4.1 4 4.4 4s-1.3-1.8-3.4-4-4.1-4-4.4-4 1.3 1.8 3.4 4M170 183.5c1.9 1.9 3.6 3.5 3.9 3.5s-1-1.6-2.9-3.5-3.6-3.5-3.9-3.5 1 1.6 2.9 3.5m-60.1 30.2c-1.3 1.6-1.2 1.7.4.4.9-.7 1.7-1.5 1.7-1.7 0-.8-.8-.3-2.1 1.3m-4.5 4.5-1.9 2.3 2.3-1.9c2.1-1.8 2.7-2.6 1.9-2.6-.2 0-1.2 1-2.3 2.2m-65.1 5.3c0 2.7.2 3.8.4 2.2.2-1.5.2-3.7 0-5-.2-1.2-.4 0-.4 2.8m147.7 9.9c0 .2.8 1 1.8 1.7 1.5 1.3 1.6 1.2.3-.4s-2.1-2.1-2.1-1.3m11.9 1.3c-1.3 1.6-1.2 1.7.4.4.9-.7 1.7-1.5 1.7-1.7 0-.8-.8-.3-2.1 1.3m161.2 7.9c0 1.1.3 1.4.6.6.3-.7.2-1.6-.1-1.9-.3-.4-.6.2-.5 1.3m0 41c0 1.1.3 1.4.6.6.3-.7.2-1.6-.1-1.9-.3-.4-.6.2-.5 1.3M117 330.5c1.3 1.4 2.6 2.5 2.8 2.5.3 0-.5-1.1-1.8-2.5s-2.6-2.5-2.8-2.5c-.3 0 .5 1.1 1.8 2.5m-33 5.9c0 .2.8 1 1.8 1.7 1.5 1.3 1.6 1.2.3-.4s-2.1-2.1-2.1-1.3m42 2c0 .2.8 1 1.8 1.7 1.5 1.3 1.6 1.2.3-.4s-2.1-2.1-2.1-1.3m-14 25c0 .2.8 1 1.8 1.7 1.5 1.3 1.6 1.2.3-.4s-2.1-2.1-2.1-1.3"/><g stroke-width="0"><path d="M91.5 16.5c-4.4 1.3-10.7 2.9-14 3.5C70 21.4 67 24 67 29c0 3.2 2.5 6.7 22.5 31.7C101.9 76.2 112 89.3 112 89.9c0 .7-2.7 1.1-7.2 1.1-13.7 0-30.2 4.1-42.4 10.6-11.6 6.1-25.6 19.7-36.1 35C17.9 149 6 170.4 6 173.4c0 3.3 4.6 8.6 7.5 8.6 1.2 0 4.2-.7 6.6-1.6 14.9-5.4 32.4-11.3 32.6-11 .2.2-1.4 4.8-3.6 10.2-6.3 15.7-7.6 23.8-7.6 46.4 0 16.7.3 21 2.3 29.7 7.3 32.6 24.3 63.6 49.2 89.7 15.2 15.9 44.5 39.1 66.6 52.6 46.8 28.6 92.7 40.2 125.8 31.6 40.7-10.5 64.1-45.9 73.1-110.6 3.7-26.9 4.3-69.8 1.4-107-5.7-73.3-38.8-121.4-97.9-142-5.2-1.9-9.6-3.5-9.8-3.6s1.7-3.7 4.2-8.1c5.6-9.4 10.6-22 10.6-26.5s-2.4-7.6-6.3-8.3c-2.4-.5-5.1.2-10.7 2.8-10.4 4.7-17.4 6.9-40.5 12.5-22.7 5.6-33.5 9.5-42.5 15.3-7 4.5-14.9 12.2-18.7 18.1-1.3 2.2-2.6 3.8-2.8 3.6-.2-.1-2.7-5.7-5.5-12.3-11.4-26.2-21.6-43.8-27.4-47.4-4.4-2.8-11-2.6-21.1.4m26.9 38.3c5.9 12.3 10.6 22.8 10.4 23.2-.3.9-34.5-41.1-35.5-43.5-.3-.9.7-1.6 3-2 1.9-.4 4.7-1.5 6.2-2.5 2.8-1.8 2.9-1.8 4 .3.6 1.2 5.9 12.3 11.9 24.5m121.7-3.4c-6.9 10-18.4 17.3-34.7 22-11.4 3.4-29.2 6.6-36.1 6.6h-5.4l2.2-3.1c4.8-6.7 19.7-15.7 32.5-19.5 7.5-2.3 40.3-10.2 42.7-10.3 1.5-.1 1.3.6-1.2 4.3M227 92.1c24.1 4.3 33.5 10.6 43.1 29.1 5.8 11.4 6.2 11.1-8.2 7.4-23.8-6.3-48-16.6-66.9-28.7l-6.5-4.2 12-3.3c6.6-1.8 12.9-3 14-2.7s6.7 1.4 12.5 2.4m-59.5 16.4c19.7 8.8 31.1 21.6 37.4 42 2.6 8.1 8.3 34.6 7.7 35.2-.2.3-3.1-.2-6.4-1.1-17.5-4.5-34-21.3-47.2-48.1-4.2-8.7-12.6-31.3-11.8-32 3.5-2.7 6.9-2 20.3 4m-46.1-1.6c.9 1.4-6.1 9.7-12.2 14.5-7.5 5.8-15.5 10-32.7 17.7-17.1 7.5-41.5 17.2-42.1 16.6-.9-.8 12.3-19.2 18.8-26.2 11.4-12.2 26.3-20 42.8-22.3 8.6-1.2 24.7-1.4 25.4-.3m175.7 18.8c15.8 16.5 25.8 37.6 31 65.8 1.7 9.1 2.2 16.6 2.6 43.8 1.3 78.2-8.1 128.6-28.1 150.5-11.2 12.2-23.8 17.2-43.7 17.2-20.4 0-39-5.3-65.4-18.7-26.2-13.2-59.6-37.3-78.7-56.6-23.7-24-40.4-54.8-44.8-82.4-1.4-8.4-1.4-28.2 0-35.3 1.5-8.2 5.2-20 6.1-20 .5 0 .9 5.8.9 12.8 0 14.3 1.3 19.7 5.9 25.2 2.3 2.8 3.5 3.4 6.6 3.4 3.5 0 4.6-.9 17.1-14 14-14.4 27.7-30.4 33.3-38.7 1.8-2.7 5-8.4 7.1-12.8l3.7-8.1 4.8 7.4c7 10.7 24.3 27.4 33 32 10.3 5.4 17.5 7.2 28.3 7.2 8.7 0 9.5-.2 11.9-2.7 3.3-3.3 3.3-4-1.6-27.2-4.8-22.7-6.2-28-9.5-36.8-1.4-3.7-2.1-6.7-1.7-6.7.5 0 3.9 1.4 7.6 3.1 16.6 7.5 50.6 16.8 63.3 17.2 4.8.2 5.6-.1 7.8-2.6 1.3-1.5 2.4-3.7 2.4-4.8s-2.1-7.1-4.6-13.2c-2.5-6.2-4.9-11.8-5.2-12.6-1-2.6 3.2.6 9.9 7.6m-164.4 5c1.3 3.4 1.8 7.4 1.8 13.8 0 8-.4 9.7-3.3 15.9-5.9 12.5-11.3 19.7-27.6 36.6l-10.1 10.5-.3-3.5c-.4-4.2 1.2-23.5 3.4-41.1l1.6-12.7 10.3-6.7c5.6-3.6 12.6-9.1 15.6-12.1 2.9-3 5.6-5.4 6-5.4s1.6 2.1 2.6 4.7"/><path d="M286.2 181c-4.1 3.8-4 9.2.1 13 5.4 5.1 14.2-1 12.3-8.5-.9-3.4-4.5-6.5-7.6-6.5-1.4 0-3.6.9-4.8 2m-96.7 41.5c-3.5 3.4-3.3 7.8.4 11.6 3.7 3.7 6.5 3.7 10.2 0 5.4-5.4 2.3-14.1-5.1-14.1-1.9 0-4 .9-5.5 2.5m69.9 22.6c-1.1 1.3-1.9 3.5-1.9 5.9 0 5.2 2.7 8 7.6 8 2.9 0 4.2-.6 5.8-2.6 4.5-5.7 1.1-13.4-5.8-13.4-2.6 0-4.4.7-5.7 2.1M133.2 272c-2.9 2.7-3 9.2-.2 12 2.1 2.1 6.9 2.6 10 1 2.7-1.4 4.1-6.4 2.8-10-1.8-5.2-8.5-6.8-12.6-3m60 9c-2.9 2.7-3 9.2-.2 12 3.1 3.1 9.3 2.7 11.9-.6 4.4-5.6 1.1-13.4-5.8-13.4-2.4 0-4.5.7-5.9 2m98.2 23.2c-2.2 1-4.4 4.7-4.4 7.3 0 4.4 4.3 8.5 9.1 8.5 3.3 0 6.9-4.4 6.9-8.5 0-6.4-5.9-10.1-11.6-7.3m-82.9 40.3c-1.7 1.6-2.5 3.5-2.5 6 0 4.1 3.6 8.5 6.9 8.5 4.8 0 9.1-4.1 9.1-8.5 0-2.7-2.2-6.3-4.7-7.4-3.7-1.7-6.2-1.3-8.8 1.4m58.9 19.7c-2.2 1-4.4 4.7-4.4 7.3 0 2.7 2.2 6.3 4.7 7.4 3.6 1.7 5.9 1.3 8.9-1.3 7.4-6.3-.4-17.7-9.2-13.4"/></g><path fill-opacity=".8" d="M66.1 28.6c0 1.1.3 1.4.6.6.3-.7.2-1.6-.1-1.9-.3-.4-.6.2-.5 1.3m102.3 45.6-1.9 2.3 2.3-1.9c2.1-1.8 2.7-2.6 1.9-2.6-.2 0-1.2 1-2.3 2.2M50.9 131.7c-1.3 1.6-1.2 1.7.4.4.9-.7 1.7-1.5 1.7-1.7 0-.8-.8-.3-2.1 1.3M7 178.4c0 .2.8 1 1.8 1.7 1.5 1.3 1.6 1.2.3-.4S7 177.6 7 178.4m69.4 21.1c0 5.5.1 7.6.3 4.7s.2-7.4 0-10-.3-.2-.3 5.3m152.5 2.2c-1.3 1.6-1.2 1.7.4.4.9-.7 1.7-1.5 1.7-1.7 0-.8-.8-.3-2.1 1.3m101.2 13.9c0 1.1.3 1.4.6.6.3-.7.2-1.6-.1-1.9-.3-.4-.6.2-.5 1.3m-290 14c0 1.1.3 1.4.6.6.3-.7.2-1.6-.1-1.9-.3-.4-.6.2-.5 1.3m54.8.1c-1.3 1.6-1.2 1.7.4.4.9-.7 1.7-1.5 1.7-1.7 0-.8-.8-.3-2.1 1.3m266.2 9.9c0 1.1.3 1.4.6.6.3-.7.2-1.6-.1-1.9-.3-.4-.6.2-.5 1.3"/></svg>