<svg xmlns="http://www.w3.org/2000/svg" version="1.0" viewBox="0 0 497 372"><path fill-opacity=".1" d="M260 31.4c0 .2.8 1 1.8 1.7 1.5 1.3 1.6 1.2.3-.4s-2.1-2.1-2.1-1.3m-126.1 3.3-2.4 2.8 2.8-2.4c2.5-2.3 3.2-3.1 2.4-3.1-.2 0-1.4 1.2-2.8 2.7m130.1.7c0 .2.8 1 1.8 1.7 1.5 1.3 1.6 1.2.3-.4s-2.1-2.1-2.1-1.3M133.2 99c0 1.4.2 1.9.5 1.2.2-.6.2-1.8 0-2.5-.3-.6-.5-.1-.5 1.3m130.9 2.6c0 1.1.3 1.4.6.6.3-.7.2-1.6-.1-1.9-.3-.4-.6.2-.5 1.3M419 152.5c-2.4 2.5-4.2 4.5-3.9 4.5s2.5-2 4.9-4.5 4.2-4.5 3.9-4.5-2.5 2-4.9 4.5M391.5 218c8.2 8.2 15.2 15 15.5 15 .2 0-6.3-6.8-14.5-15-8.2-8.3-15.2-15-15.5-15-.2 0 6.3 6.7 14.5 15M57.4 282.2l-1.9 2.3 2.3-1.9c2.1-1.8 2.7-2.6 1.9-2.6-.2 0-1.2 1-2.3 2.2m-10 10-1.9 2.3 2.3-1.9c2.1-1.8 2.7-2.6 1.9-2.6-.2 0-1.2 1-2.3 2.2M331 309.4c0 .2.8 1 1.8 1.7 1.5 1.3 1.6 1.2.3-.4s-2.1-2.1-2.1-1.3"/><path fill-opacity=".2" d="M244 51.4c0 .2.8 1 1.8 1.7 1.5 1.3 1.6 1.2.3-.4s-2.1-2.1-2.1-1.3m-46.2 113.3c.6.2 1.8.2 2.5 0 .6-.3.1-.5-1.3-.5s-1.9.2-1.2.5m291.4 1.3c0 1.4.2 1.9.5 1.2.2-.6.2-1.8 0-2.5-.3-.6-.5-.1-.5 1.3m-123.7 26c6 6 11.2 11 11.5 11 .2 0-4.5-5-10.5-11-6-6.1-11.2-11-11.5-11-.2 0 4.5 4.9 10.5 11m-1 35c15.4 15.4 28.2 28 28.5 28s-12.1-12.6-27.5-28-28.2-28-28.5-28 12.1 12.6 27.5 28M52.4 287.2l-2.9 3.3 3.3-2.9c3-2.8 3.7-3.6 2.9-3.6-.2 0-1.6 1.5-3.3 3.2m21 15-1.9 2.3 2.3-1.9c2.1-1.8 2.7-2.6 1.9-2.6-.2 0-1.2 1-2.3 2.2m-5.5 5.5c-1.3 1.6-1.2 1.7.4.4.9-.7 1.7-1.5 1.7-1.7 0-.8-.8-.3-2.1 1.3"/><path fill-opacity=".3" d="m151.9 52.7-2.4 2.8 2.8-2.4c2.5-2.3 3.2-3.1 2.4-3.1-.2 0-1.4 1.2-2.8 2.7m38.9 174c.6.2 1.8.2 2.5 0 .6-.3.1-.5-1.3-.5s-1.9.2-1.2.5M395 257.5c1.3 1.4 2.6 2.5 2.8 2.5.3 0-.5-1.1-1.8-2.5s-2.6-2.5-2.8-2.5c-.3 0 .5 1.1 1.8 2.5"/><path fill-opacity=".5" d="M372.8 141.7c.7.3 1.6.2 1.9-.1.4-.3-.2-.6-1.3-.5-1.1 0-1.4.3-.6.6m66 0c.6.2 1.8.2 2.5 0 .6-.3.1-.5-1.3-.5s-1.9.2-1.2.5M151 144.4c0 .2.8 1 1.8 1.7 1.5 1.3 1.6 1.2.3-.4s-2.1-2.1-2.1-1.3m243 7.8c4.1 4.5 5 5.3 5 4.5 0-.2-2.1-2.3-4.7-4.7l-4.8-4.5zm38 55.5-25.5 25.8 25.8-25.5c23.9-23.7 26.2-26 25.4-26-.1 0-11.7 11.6-25.7 25.7m-233.2 19c.7.3 1.6.2 1.9-.1.4-.3-.2-.6-1.3-.5-1.1 0-1.4.3-.6.6m-4 25c.6.2 1.8.2 2.5 0 .6-.3.1-.5-1.3-.5s-1.9.2-1.2.5m7 0c.6.2 1.8.2 2.5 0 .6-.3.1-.5-1.3-.5s-1.9.2-1.2.5M344.5 287c1 1.1 2 2 2.3 2s-.3-.9-1.3-2-2-2-2.3-2 .3.9 1.3 2"/><path fill-opacity=".6" d="M194.8 189.7c.7.3 1.6.2 1.9-.1.4-.3-.2-.6-1.3-.5-1.1 0-1.4.3-.6.6m-4 62c.6.2 1.8.2 2.5 0 .6-.3.1-.5-1.3-.5s-1.9.2-1.2.5m15 0c.7.3 1.6.2 1.9-.1.4-.3-.2-.6-1.3-.5-1.1 0-1.4.3-.6.6"/><path fill-opacity=".7" d="M108.1 95.6c0 1.1.3 1.4.6.6.3-.7.2-1.6-.1-1.9-.3-.4-.6.2-.5 1.3m0 7c0 1.1.3 1.4.6.6.3-.7.2-1.6-.1-1.9-.3-.4-.6.2-.5 1.3m26.4 60.4c1 1.1 2 2 2.3 2s-.3-.9-1.3-2-2-2-2.3-2 .3.9 1.3 2m189.6 2.6c0 1.1.3 1.4.6.6.3-.7.2-1.6-.1-1.9-.3-.4-.6.2-.5 1.3m140 0c0 1.1.3 1.4.6.6.3-.7.2-1.6-.1-1.9-.3-.4-.6.2-.5 1.3m-265.8 24.1c.9.2 2.3.2 3 0 .6-.3-.1-.5-1.8-.5-1.6 0-2.2.2-1.2.5m246.7 40-30.5 30.8 30.8-30.5c28.5-28.3 31.2-31 30.4-31-.1 0-13.9 13.8-30.7 30.7m-118 74.8c1.3 1.4 2.6 2.5 2.8 2.5.3 0-.5-1.1-1.8-2.5s-2.6-2.5-2.8-2.5c-.3 0 .5 1.1 1.8 2.5"/><path fill-opacity=".8" d="m134.9 34.7-3.4 3.8 3.8-3.4c3.4-3.3 4.2-4.1 3.4-4.1-.2 0-1.9 1.7-3.8 3.7m154.2 60.9c0 1.1.3 1.4.6.6.3-.7.2-1.6-.1-1.9-.3-.4-.6.2-.5 1.3M108.2 99c0 1.4.2 1.9.5 1.2.2-.6.2-1.8 0-2.5-.3-.6-.5-.1-.5 1.3m181 3c0 1.4.2 1.9.5 1.2.2-.6.2-1.8 0-2.5-.3-.6-.5-.1-.5 1.3M46.9 293.7c-1.3 1.6-1.2 1.7.4.4.9-.7 1.7-1.5 1.7-1.7 0-.8-.8-.3-2.1 1.3m275.1 5.7c0 .2.8 1 1.8 1.7 1.5 1.3 1.6 1.2.3-.4s-2.1-2.1-2.1-1.3m8 8c0 .2.8 1 1.8 1.7 1.5 1.3 1.6 1.2.3-.4s-2.1-2.1-2.1-1.3"/><path fill-opacity=".9" d="M194.8 8.7c.6.2 1.8.2 2.5 0 .6-.3.1-.5-1.3-.5s-1.9.2-1.2.5m6 0c.6.2 1.8.2 2.5 0 .6-.3.1-.5-1.3-.5s-1.9.2-1.2.5M262.5 35c1 1.1 2 2 2.3 2s-.3-.9-1.3-2-2-2-2.3-2 .3.9 1.3 2M151.9 51.7l-2.4 2.8 2.8-2.4c2.5-2.3 3.2-3.1 2.4-3.1-.2 0-1.4 1.2-2.8 2.7m91.1-2.4c0 .2 1.5 1.6 3.3 3.3l3.2 2.9-2.9-3.3c-2.8-3-3.6-3.7-3.6-2.9m46.1 49.3c0 1.1.3 1.4.6.6.3-.7.2-1.6-.1-1.9-.3-.4-.6.2-.5 1.3m130.4 52.6-5 5.3 5.3-5c2.8-2.7 5.2-5.1 5.2-5.2 0-.8-.9.1-5.5 4.9M380 207.5c14.6 14.6 26.7 26.5 27 26.5s-11.4-11.9-26-26.5-26.7-26.5-27-26.5 11.4 11.9 26 26.5m-12 22c17.3 17.3 31.7 31.5 32 31.5s-13.7-14.2-31-31.5-31.7-31.5-32-31.5 13.7 14.2 31 31.5M65.9 275.7c-1.3 1.6-1.2 1.7.4.4.9-.7 1.7-1.5 1.7-1.7 0-.8-.8-.3-2.1 1.3m271.6 5.3c1 1.1 2 2 2.3 2s-.3-.9-1.3-2-2-2-2.3-2 .3.9 1.3 2m-284 6.2-5 5.3 5.3-5c4.8-4.6 5.7-5.5 4.9-5.5-.1 0-2.5 2.4-5.2 5.2m297 6.8c1 1.1 2 2 2.3 2s-.3-.9-1.3-2-2-2-2.3-2 .3.9 1.3 2m-31.5 2.4c0 .2.8 1 1.8 1.7 1.5 1.3 1.6 1.2.3-.4s-2.1-2.1-2.1-1.3m-249 8.3-6.5 6.8 6.8-6.5c6.2-6 7.2-7 6.4-7-.1 0-3.2 3-6.7 6.7m263 5.7c0 .2.8 1 1.8 1.7 1.5 1.3 1.6 1.2.3-.4s-2.1-2.1-2.1-1.3"/><path d="M189.9 9.1c-38.8 3.6-71.5 33.6-79.4 72.8-2.3 11.3-1.6 30.4 1.5 41.1 7.2 25 25 46 48.5 57.1 15 7 21.2 8.4 39 8.3 16.2 0 21.2-.9 34.3-6.3 20.3-8.4 38.8-26.5 47.9-46.9 10.9-24.6 9.6-55.5-3.3-79.1-13.9-25.3-41.7-44.4-68-46.6-3.8-.3-8-.7-9.4-.9-1.4-.1-6.4.1-11.1.5M220 35.8c9.4 3.1 18.4 8.8 25.9 16.3 12.6 12.6 18.2 25.5 18.9 43.9.8 21.1-4.4 34.7-18.8 49.1-13.5 13.6-28.5 19.9-47 19.9-18.2 0-33.4-6.4-46.6-19.5-13.1-13-19.4-28.1-19.4-46.5 0-16.7 5-30.6 15.3-42.9 8.8-10.4 19.3-17.2 33.2-21.3 8.6-2.5 29.4-2 38.5 1m141 82.9c-21 5.8-36 25.2-36 46.7 0 3.9.6 9.3 1.4 12.1 3.1 11.9 5.1 14.3 40.9 50.2 23.7 23.8 34.9 34.4 36.9 34.8 6.1 1.4 8.5-.6 42.9-35.3 36.8-37 37.6-38.1 40.6-53.1 5.3-25.6-13.3-51.8-40-56.4-12.3-2.1-27.4 1.8-36.9 9.4l-3.8 3-5.7-4.1c-11.5-8-27.1-10.8-40.3-7.3m20.3 23.5c2.7.8 6.7 3.7 11.8 8.5 11.5 10.7 15.9 11 24.9 1.7 8.6-8.7 13-10.9 22-10.9 5.7 0 8.5.6 11.6 2.2 11.7 6.2 16.5 21.5 10.4 33.3-1 1.9-13.9 15.5-28.7 30.3L406.5 234l-26.7-26.7c-29.3-29.4-30.8-31.4-30.8-41.8 0-16.8 15.8-28.2 32.3-23.3M178 228c-38.7 4.7-72.7 18.2-102.8 40.7-9.9 7.5-27.7 24.7-35.4 34.2-8.6 10.7-17.1 23.6-23.2 35.4-5.2 9.9-11.8 25.3-13.1 30.9l-.7 2.8h24.8l4.3-10.5C42 336.8 60.3 312 81.2 294.4c79.7-66.8 196.3-55.2 261 26.1 10.2 12.8 23.6 36.6 27 47.7l1.1 3.8h25.6l-2.9-8.3c-10.1-27.7-27.7-55.4-48.5-76.2-30.7-30.7-69.6-50.6-113.5-58-11.2-1.9-42.2-2.8-53-1.5"/><path fill-opacity=".4" d="M372.3 116.7c.9.2 2.3.2 3 0 .6-.3-.1-.5-1.8-.5-1.6 0-2.2.2-1.2.5m67 0c.9.2 2.3.2 3 0 .6-.3-.1-.5-1.8-.5-1.6 0-2.2.2-1.2.5m-244.5 110c.6.2 1.8.2 2.5 0 .6-.3.1-.5-1.3-.5s-1.9.2-1.2.5m7.5 0c.9.2 2.3.2 3 0 .6-.3-.1-.5-1.8-.5-1.6 0-2.2.2-1.2.5m-3.5 25c.7.3 1.6.2 1.9-.1.4-.3-.2-.6-1.3-.5-1.1 0-1.4.3-.6.6"/></svg>