<?xml version="1.0" standalone="no"?>
<!DOCTYPE svg PUBLIC "-//W3C//DTD SVG 20010904//EN"
 "http://www.w3.org/TR/2001/REC-SVG-20010904/DTD/svg10.dtd">
<svg version="1.0" xmlns="http://www.w3.org/2000/svg"
 width="542.000000pt" height="542.000000pt" viewBox="0 0 542.000000 542.000000"
 preserveAspectRatio="xMidYMid meet">
<metadata>
Created by potrace 1.14, written by Peter Selinger 2001-2017
</metadata>
<g transform="translate(0.000000,542.000000) scale(0.100000,-0.100000)"
fill="#000000" stroke="none">
<path d="M1467 5324 c-1 -1 -34 -5 -73 -8 -39 -4 -82 -9 -95 -12 -13 -2 -37
-6 -54 -9 -162 -21 -188 -69 -125 -230 109 -276 288 -533 484 -693 88 -72 256
-162 381 -203 42 -14 47 -15 83 -23 13 -3 33 -8 44 -12 11 -3 30 -7 41 -9 12
-2 47 -7 77 -11 62 -10 353 -11 417 -2 38 6 41 4 46 -18 3 -20 0 -24 -22 -25
-67 -4 -131 -11 -211 -24 -54 -8 -128 -25 -200 -45 -41 -11 -82 -22 -90 -24
-28 -7 -105 -37 -132 -52 -16 -8 -28 -13 -28 -10 0 3 -57 -24 -126 -59 -126
-65 -229 -130 -339 -214 -57 -43 -251 -231 -306 -296 -62 -75 -172 -237 -215
-320 -26 -49 -50 -92 -53 -95 -3 -3 -7 -9 -8 -15 -1 -5 -12 -32 -24 -60 -12
-27 -23 -52 -24 -55 -1 -3 -4 -12 -7 -20 -3 -8 -13 -37 -23 -65 -9 -27 -19
-57 -22 -65 -3 -8 -7 -19 -8 -25 -2 -5 -8 -30 -15 -55 -7 -25 -14 -53 -16 -63
-2 -10 -5 -26 -8 -35 -3 -9 -8 -35 -11 -57 -3 -23 -8 -52 -10 -65 -26 -129
-25 -471 1 -615 15 -82 39 -195 46 -215 3 -8 14 -42 23 -75 56 -192 178 -430
314 -613 77 -103 269 -299 361 -369 74 -57 232 -163 270 -181 14 -6 32 -16 40
-22 15 -10 166 -81 185 -86 6 -2 62 -21 125 -43 103 -36 199 -60 306 -77 20
-3 46 -8 58 -10 108 -21 398 -21 546 0 158 23 367 79 485 131 17 7 59 25 95
41 36 15 82 38 102 51 21 13 40 23 44 23 6 0 175 110 184 120 3 3 22 18 43 33
40 30 44 39 24 59 -7 7 -25 34 -39 59 -45 77 -46 78 -137 12 -99 -72 -146
-101 -241 -148 -41 -20 -83 -41 -93 -46 -54 -29 -269 -97 -361 -115 -12 -2
-32 -6 -46 -9 -200 -40 -509 -36 -710 10 -14 4 -37 8 -53 11 -82 15 -272 87
-407 153 -197 98 -433 290 -578 471 -78 97 -111 143 -156 220 -64 109 -165
339 -180 413 -3 12 -12 47 -20 77 -19 68 -29 127 -44 240 -9 67 -8 356 1 425
10 76 15 108 22 135 3 14 7 34 9 45 4 29 46 175 59 205 6 14 11 27 11 30 3 18
48 118 88 197 197 387 543 703 946 864 42 17 82 32 87 34 6 1 17 5 25 8 26 11
211 57 249 62 20 3 61 9 91 14 55 9 432 8 480 -2 14 -3 45 -8 69 -11 24 -4 47
-9 51 -11 4 -3 25 -7 46 -11 20 -3 48 -10 61 -15 13 -5 36 -11 51 -14 15 -2
74 -23 131 -45 104 -41 120 -41 121 -4 0 5 16 36 35 68 l34 58 -64 29 c-187
85 -472 151 -682 158 -22 1 -22 2 -18 154 2 83 6 163 9 177 4 14 9 39 12 55 3
17 7 35 8 40 4 19 29 90 35 100 3 6 6 15 7 21 4 24 73 121 115 162 70 67 177
115 284 126 62 6 80 15 98 46 27 44 22 78 -17 115 -32 30 -38 31 -92 28 -99
-7 -149 -20 -240 -64 -128 -61 -236 -168 -306 -306 -17 -35 -33 -63 -34 -63
-2 0 -23 31 -48 69 -104 161 -293 344 -441 426 -11 6 -41 23 -67 38 -27 15
-48 24 -48 21 0 -4 -6 -2 -12 3 -25 20 -224 77 -308 88 -99 14 -363 28 -373
19z m268 -198 c62 -6 108 -13 137 -22 9 -3 26 -7 37 -9 12 -3 31 -7 42 -10 59
-13 225 -82 252 -106 7 -5 33 -24 58 -42 72 -50 172 -148 239 -233 42 -54 70
-93 70 -98 0 -3 12 -22 26 -43 71 -105 122 -251 89 -254 -5 -1 -30 -3 -55 -6
-111 -13 -358 -6 -440 12 -14 4 -34 8 -45 10 -313 57 -581 281 -773 648 -29
53 -49 97 -46 97 4 0 1 7 -6 15 -22 26 -11 31 105 41 39 4 71 7 72 8 5 4 181
-2 238 -8z"/>
<path d="M2755 3803 c-318 -40 -594 -147 -832 -321 l-63 -46 29 -13 c16 -8 45
-30 66 -49 21 -19 41 -34 46 -34 5 0 9 -7 9 -15 0 -22 5 -20 89 34 258 165
514 243 811 245 206 1 307 -12 477 -64 386 -118 731 -412 913 -778 53 -106
114 -292 135 -407 20 -110 27 -341 14 -450 -51 -416 -271 -794 -611 -1046
-164 -121 -408 -233 -578 -264 -14 -2 -50 -9 -80 -16 -85 -17 -352 -19 -455
-3 -258 38 -492 134 -695 284 -44 33 -84 60 -89 60 -5 0 -19 -12 -30 -26 -12
-15 -21 -24 -21 -22 0 3 -16 -10 -36 -28 -19 -19 -40 -34 -45 -34 -27 0 0 -35
68 -86 43 -33 80 -61 83 -64 6 -7 128 -79 190 -113 135 -73 405 -157 562 -174
92 -10 351 -10 443 0 265 28 574 153 807 326 378 281 617 688 686 1166 9 64 9
351 0 430 -33 293 -161 602 -349 845 -328 425 -822 667 -1357 667 -86 0 -170
-2 -187 -4z"/>
</g>
</svg>
